<?xml version="1.0" encoding="utf-8"?>
<!-- Generator: Adobe Illustrator 23.0.2, SVG Export Plug-In . SVG Version: 6.00 Build 0)  -->
<svg version="1.1" id="Layer_1" xmlns="http://www.w3.org/2000/svg" xmlns:xlink="http://www.w3.org/1999/xlink" x="0px" y="0px"
	 viewBox="0 0 50 50" style="enable-background:new 0 0 50 50;" xml:space="preserve">
<style type="text/css">
	.st0{clip-path:url(#SVGID_2_);}
	.st1{opacity:0.5;clip-path:url(#SVGID_4_);fill:#FFFFFF;}
	.st2{fill:#3CA74F;}
	.st3{fill:none;}
	.st4{opacity:0.5;fill:#3CA74F;}
	.st5{fill:#111111;}
	.st6{fill:url(#SVGID_7_);}
	.st7{fill:url(#SVGID_8_);}
	.st8{fill:#FFFFFF;}
	.st9{fill:url(#SVGID_9_);}
	.st10{fill:url(#SVGID_10_);}
	.st11{fill:#020202;}
	.st12{fill:url(#SVGID_11_);}
	.st13{fill:url(#SVGID_12_);}
	.st14{fill:url(#SVGID_13_);}
</style>
<g>
	
		<radialGradient id="SVGID_2_" cx="25.0103" cy="61.3214" r="67.3412" gradientTransform="matrix(1 0 0 1 0.3694 0)" gradientUnits="userSpaceOnUse">
		<stop  offset="0" style="stop-color:#3B5998"/>
		<stop  offset="0.301" style="stop-color:#3B5998"/>
		<stop  offset="1" style="stop-color:#5F83CF"/>
	</radialGradient>
	<path style="fill:url(#SVGID_2_);" d="M50,39.8c0,5.7-4.6,10.3-10.3,10.3H10.3C4.6,50.1,0,45.5,0,39.8V10.3C0,4.7,4.6,0.1,10.3,0.1
		h29.5C45.4,0.1,50,4.7,50,10.3V39.8z"/>
	<path class="st8" d="M38.4,13.8h4.6V6.6h-5.7l0,0h-1.2c0,0-4.3-0.1-7.1,3.5c0,0-1.9,1.8-1.9,7h0v5.4h-6.8v7.7h6.8v19.9H35V30.2h6.8
		l0.9-7.7H35v-5.4h0C35,16.4,35.3,13.8,38.4,13.8z"/>
</g>
</svg>
