<svg id="Layer_1" data-name="Layer 1" xmlns="http://www.w3.org/2000/svg" viewBox="0 0 186.7525 111.4785"><defs><style>.cls-1{fill:#bbbdbf;}.cls-2{fill:#3fa652;stroke:#21552a;stroke-width:2.8167px;}.cls-2,.cls-3,.cls-4{stroke-miterlimit:10;}.cls-3,.cls-4{fill:#fff;stroke:#fff;}.cls-3{stroke-width:0.0391px;}.cls-4{stroke-width:1.2951px;}</style></defs><title>nav_logo2</title><path class="cls-1" d="M91.5318,27.0659a8.6186,8.6186,0,0,0,3.2047-.6212,9.5379,9.5379,0,0,0,2.3345-1.23q.77-.6087.7713-.8321a4.09,4.09,0,0,0-.6208-1.2173,4.018,4.018,0,0,0-.6083-.8326c-.2083-.2067-.3444-.31-.41-.31a6.5326,6.5326,0,0,1-4.5472,2.1613,4.3181,4.3181,0,0,1-2.0231-.447,3.2772,3.2772,0,0,1-1.3054-1.1678,5.7377,5.7377,0,0,1-.8434-3.08,7.791,7.791,0,0,1,1.5137-5.08,4.2756,4.2756,0,0,1,3.281-1.8508,1.29,1.29,0,0,1,1.1177.4475,2.7968,2.7968,0,0,1,.3217,1.5647v.149a5.2337,5.2337,0,0,0,1.3549-.2733,3.7736,3.7736,0,0,0,1.0311-.3975q.0247-.024.1856-1.5523A26.3072,26.3072,0,0,0,96.45,9.7752c0-.033-.2063-.099-.6208-.1985a6.0887,6.0887,0,0,0-1.4147-.149,12.0093,12.0093,0,0,0-4.2234.6955,8.3343,8.3343,0,0,0-2.9572,1.7637,9.4349,9.4349,0,0,0-1.8127,2.4845,11.2091,11.2091,0,0,0-1.2435,5.2169,7.7915,7.7915,0,0,0,1.8642,5.3906A6.9739,6.9739,0,0,0,91.5318,27.0659Z" transform="translate(-1.2173 -5.8355)"/><path class="cls-1" d="M104.19,26.9417a4.7656,4.7656,0,0,0,3.8749-1.7266,6.207,6.207,0,0,0,1.4291-4.0868,5.5564,5.5564,0,0,0-.2743-1.8009,3.8956,3.8956,0,0,0-.6454-1.2548,5.5054,5.5054,0,0,0-.9569-.8816,1.7689,1.7689,0,0,0-.9548-.4347,5.0423,5.0423,0,0,0,.0742-.82.73.73,0,0,0-.101-.4722,4.0432,4.0432,0,0,0-1.291-.149,6.0217,6.0217,0,0,0-4.6585,1.8756A6.1649,6.1649,0,0,0,98.96,21.4886a5.5908,5.5908,0,0,0,1.392,3.9373A4.947,4.947,0,0,0,104.19,26.9417Zm-1.5158-8.0489a2.6135,2.6135,0,0,1,1.9014-.9192,2.5578,2.5578,0,0,0-.0742.6207,1.0924,1.0924,0,0,0,.05.4228h.1979a2.0428,2.0428,0,0,1,1.1178.3722,2.1634,2.1634,0,0,1,.7692,1.9875,3.1966,3.1966,0,0,1-.7321,2.2854,2.153,2.153,0,0,1-1.5652.77,2.4294,2.4294,0,0,1-1.3034-.298,2.8667,2.8667,0,0,1-1.2435-2.683A3.5453,3.5453,0,0,1,102.674,18.8928Z" transform="translate(-1.2173 -5.8355)"/><path class="cls-1" d="M111.6777,26.9417a3.96,3.96,0,0,0,2.6087-.5965,13.78,13.78,0,0,0,.1011-2.5587l-.0268-2.633v-.5217a2.5191,2.5191,0,0,1,.5465-1.2173A1.5988,1.5988,0,0,1,116.25,18.62a.9023.9023,0,0,1,.9816.7078,11.0763,11.0763,0,0,1,.1856,2.4592,34.32,34.32,0,0,1-.2227,3.7636l.7939.1242a7.32,7.32,0,0,0,1.293-.149c.53-.1.794-.2149.794-.3474l.099-1.9628q0-2.8814-.0743-3.6769a.8984.8984,0,0,1,.1609-.3228,2.0332,2.0332,0,0,1,.5341-.5093,1.4413,1.4413,0,0,1,.8455-.2609,1.116,1.116,0,0,1,.7837.2856,1.8061,1.8061,0,0,1,.4578.944,7.8357,7.8357,0,0,1,.1876,1.3167q.0372.659.0372,2.1741a37.3414,37.3414,0,0,1-.2743,3.9745l.796.1242a7.1582,7.1582,0,0,0,1.3157-.1614c.5465-.1077.8208-.22.8208-.3351l.099-2.9067q0-2.2851-.1485-4.4219a8.5216,8.5216,0,0,0-.8208-2.9315,2.297,2.297,0,0,0-2.2107-1.3167,3.932,3.932,0,0,0-3.13,1.9875,2.6069,2.6069,0,0,0-3.7389-1.0311,6.3758,6.3758,0,0,0-.9692.646c-.1732.1577-.2928.2732-.3588.348s-.1176.1113-.1506.1113-.0495-.19-.0495-.5712.033-.9352.1011-1.6642c0-.066-.1918-.1-.5733-.1a3.3593,3.3593,0,0,0-1.192.2361,2.9135,2.9135,0,0,0-.92.5088,5.3447,5.3447,0,0,0-.1238,1.7143l.0743,5.8381a26.1616,26.1616,0,0,1-.1733,3.6517Q111.48,26.9419,111.6777,26.9417Z" transform="translate(-1.2173 -5.8355)"/><path class="cls-1" d="M128.2972,26.9417a3.96,3.96,0,0,0,2.6087-.5965,13.78,13.78,0,0,0,.1011-2.5587l-.0269-2.633v-.5217a2.52,2.52,0,0,1,.5465-1.2173,1.5988,1.5988,0,0,1,1.3425-.7949.9025.9025,0,0,1,.9817.7078,11.0763,11.0763,0,0,1,.1856,2.4592,34.321,34.321,0,0,1-.2228,3.7636l.794.1242a7.3207,7.3207,0,0,0,1.293-.149c.53-.1.794-.2149.794-.3474l.099-1.9628q0-2.8814-.0743-3.6769a.8965.8965,0,0,1,.1609-.3228,2.0332,2.0332,0,0,1,.5341-.5093,1.4413,1.4413,0,0,1,.8455-.2609,1.1156,1.1156,0,0,1,.7836.2856,1.8054,1.8054,0,0,1,.4579.944,7.8357,7.8357,0,0,1,.1876,1.3167q.0372.659.0371,2.1741a37.337,37.337,0,0,1-.2742,3.9745l.796.1242a7.1592,7.1592,0,0,0,1.3157-.1614q.82-.1616.8207-.3351l.099-2.9067q0-2.2851-.1484-4.4219a8.5216,8.5216,0,0,0-.8208-2.9315,2.297,2.297,0,0,0-2.2107-1.3167,3.9322,3.9322,0,0,0-3.1305,1.9875,2.6068,2.6068,0,0,0-3.7388-1.0311,6.3758,6.3758,0,0,0-.9692.646c-.1733.1577-.2929.2732-.3589.348s-.1175.1113-.15.1113-.0495-.19-.0495-.5712.033-.9352.1011-1.6642c0-.066-.1918-.1-.5733-.1a3.3593,3.3593,0,0,0-1.192.2361,2.9153,2.9153,0,0,0-.92.5088,5.3465,5.3465,0,0,0-.1237,1.7143l.0742,5.8381a26.1659,26.1659,0,0,1-.1732,3.6517Q128.0992,26.9419,128.2972,26.9417Z" transform="translate(-1.2173 -5.8355)"/><path class="cls-1" d="M147.5006,26.7927a3.4449,3.4449,0,0,0,1.7777-.5465,4.6057,4.6057,0,0,0,1.5013-1.4657l.0247.0495.0268.5217a5.81,5.81,0,0,0,.297,1.441c.165.4965.3155.745.4475.745a3.8438,3.8438,0,0,0,1.7384-.5465q1.0178-.5467,1.0188-.795a4.7333,4.7333,0,0,1-.67-1.9875,17.8518,17.8518,0,0,1-.099-2.4592q0-1.938.1484-5.49l.05-1.1677a1.48,1.48,0,0,0-.7444-.0995,3.6944,3.6944,0,0,0-1.3054.2485,1.5629,1.5629,0,0,0-.7816.4723,35.3319,35.3319,0,0,0-.1505,4.8936v.845a2.1291,2.1291,0,0,1-.5836,1.1054,1.747,1.747,0,0,1-1.39.7826,1.22,1.22,0,0,1-1.1548-.7208,2.1214,2.1214,0,0,1-.1877-.596c-.0412-.2314-.066-.3933-.0742-.4846s-.0207-.298-.0372-.6207-.0247-.8239-.0247-1.5029.0412-1.6482.1237-2.9067q.0248-.6456.0248-.6707a1.1578,1.1578,0,0,0-.695-.1242,3.3262,3.3262,0,0,0-2.087.5217,12.0517,12.0517,0,0,0-.2227,3.18q0,2.6827.0495,3.3285Q144.892,26.7929,147.5006,26.7927Z" transform="translate(-1.2173 -5.8355)"/><path class="cls-1" d="M165.1141,18.7933a10.7756,10.7756,0,0,0-.3609-1.292,3.1685,3.1685,0,0,0-.5589-1.0682,2.6239,2.6239,0,0,0-2.0746-.894,3.2432,3.2432,0,0,0-1.5384.4346,4.6423,4.6423,0,0,0-1.0558.6955,4.1122,4.1122,0,0,0-.3733.4346l-.0742.05q-.0742,0-.0743-.5965a9.6384,9.6384,0,0,1,.0743-1.1924c0-.0825-.196-.1243-.5837-.1243a4.1973,4.1973,0,0,0-1.2558.2114,2.3568,2.3568,0,0,0-.9445.4846,5.0617,5.0617,0,0,0-.1238,1.6642l.0743,5.59a27.08,27.08,0,0,1-.1733,3.6764c0,.05.1691.0748.5094.0748a6.3757,6.3757,0,0,0,1.3033-.1738,2.2935,2.2935,0,0,0,1.12-.497,15.7187,15.7187,0,0,0,.099-2.7577V21.6253l-.0247-.9193v-.3475l.1732-.4227a2.1486,2.1486,0,0,1,.6578-.894,1.9458,1.9458,0,0,1,1.33-.4475c.5465,0,.9094.3521,1.0929,1.0559a13.5858,13.5858,0,0,1,.2723,3.1552,39.402,39.402,0,0,1-.2475,4.3348l.8187.1242a7.1578,7.1578,0,0,0,1.3178-.1614q.82-.1616.8187-.3351l.0742-2.9067q0-2.1111-.0742-3.4779A12.8871,12.8871,0,0,0,165.1141,18.7933Z" transform="translate(-1.2173 -5.8355)"/><path class="cls-1" d="M170.6037,21.6747l.0495-4.0244.0248-1.2667c-.0825-.1-.3135-.149-.695-.149a3.3719,3.3719,0,0,0-2.0127.447,23.0573,23.0573,0,0,0-.1733,4.1982q0,3.8511.0619,4.5214a7.1609,7.1609,0,0,0,.2867,1.4162q.2226.7455.4454.745a3.8509,3.8509,0,0,0,1.74-.5465q1.0177-.5467,1.0188-.795a3.9321,3.9321,0,0,1-.6352-1.7013A25.8961,25.8961,0,0,1,170.6037,21.6747Z" transform="translate(-1.2173 -5.8355)"/><path class="cls-1" d="M169.1251,14.8184a1.8048,1.8048,0,0,0,1.2435-.5094,1.6081,1.6081,0,0,0,.5589-1.23,1.6373,1.6373,0,0,0-.4228-1.1677,1.4515,1.4515,0,0,0-1.1053-.447,1.7322,1.7322,0,0,0-1.2291.5217,1.6572,1.6572,0,0,0-.5465,1.242,1.619,1.619,0,0,0,.4083,1.1554A1.4327,1.4327,0,0,0,169.1251,14.8184Z" transform="translate(-1.2173 -5.8355)"/><path class="cls-1" d="M176.2419,10.0237c0-.066-.2145-.099-.6455-.099a4.3714,4.3714,0,0,0-1.5034.3227q-.8568.3232-.8558.5713a4.9923,4.9923,0,0,0,.0742.497,14.0478,14.0478,0,0,1,.0743,1.8632q-.77.0247-1.3157.05-.2259.1995-.2248,1.1554a2.3736,2.3736,0,0,0,.1237,1.0806l1.392-.0248q-.0742,2.9812-.0742,6.3347t.0619,3.9a4.1064,4.1064,0,0,0,.299,1.1183,3.2349,3.2349,0,0,0,.4454.82c.1423.1655.2372.2485.2867.2485a3.7836,3.7836,0,0,0,1.8-.5217q.9558-.522.9569-.795a3.3219,3.3219,0,0,1-1.0188-2.1117q-.0742-.77-.0742-3.0681t.0495-5.9748h1.1672q.2258,0,.4722-.6578a4.251,4.251,0,0,0,.25-1.5034,8.8447,8.8447,0,0,0-1.8643-.0742Q176.1923,10.5952,176.2419,10.0237Z" transform="translate(-1.2173 -5.8355)"/><path class="cls-1" d="M187.97,15.34c0-.05-.167-.0747-.497-.0747a6.5064,6.5064,0,0,0-1.3054.1742,2.2827,2.2827,0,0,0-1.13.497,6.6005,6.6005,0,0,0-.1237,1.9251q0,1.8011.0495,3.3661l-.1237.4722a2.2124,2.2124,0,0,1-.6084.9564,1.7674,1.7674,0,0,1-1.3054.4841q-.82,0-1.1672-1.1178a9.5592,9.5592,0,0,1-.3485-2.8072,38.2711,38.2711,0,0,1,.2743-4.1486l-.7961-.1243a5.8557,5.8557,0,0,0-1.2538.1738c-.5052.1165-.7568.2325-.7568.348l-.0763.348a21.066,21.066,0,0,0-.198,3.2047q0,1.4158.099,2.7324a8.9916,8.9916,0,0,0,.1753,1.49,10.7256,10.7256,0,0,0,.3464,1.18,2.7158,2.7158,0,0,0,.5589.9811,2.6236,2.6236,0,0,0,.8455.5717,3.5245,3.5245,0,0,0,1.39.2233,3.0788,3.0788,0,0,0,1.7529-.596,4.51,4.51,0,0,0,.6084-.5094,3.658,3.658,0,0,0,.3609-.3975q.0743-.112.1237-.1861c.033-.05.066-.0747.099-.0747s.0495.0495.0495.149l.0247.7207a7.6659,7.6659,0,0,1-.7692,3.95,6.5325,6.5325,0,0,1-.7465,1.0311,3.463,3.463,0,0,1-1.3157.77,5.2752,5.2752,0,0,1-1.889.36,3.9126,3.9126,0,0,0,.2,1.18,4.791,4.791,0,0,0,.4207,1.0064c.1506.2479.25.3722.2991.3722a6.3047,6.3047,0,0,0,3.13-.8692,6.3791,6.3791,0,0,0,1.6766-1.3415,6.6582,6.6582,0,0,0,1.2415-2.3355,10.7967,10.7967,0,0,0,.5093-3.4527l-.0247-6.6084A27.33,27.33,0,0,1,187.97,15.34Z" transform="translate(-1.2173 -5.8355)"/><path class="cls-1" d="M87.0114,56.9264A9.9864,9.9864,0,0,0,93.06,55.1751a5.1506,5.1506,0,0,0,2.3963-4.2606,3.9092,3.9092,0,0,0-.7569-2.4221,5.0064,5.0064,0,0,0-1.8374-1.5276q-1.0827-.522-2.1489-.9316a10.1243,10.1243,0,0,1-1.8271-.8945,1.3559,1.3559,0,0,1-.7568-1.1177,1.3991,1.3991,0,0,1,.497-1.0806,3.0583,3.0583,0,0,1,1.2785-.6584,12.0874,12.0874,0,0,1,1.5158-.3108,9.53,9.53,0,0,1,1.2414-.099,7.4207,7.4207,0,0,1,.9074.05,2.5118,2.5118,0,0,0,.4475-1.1178,6.6624,6.6624,0,0,0,.1733-1.1058,1.5261,1.5261,0,0,0-.0248-.36,2.41,2.41,0,0,0-1.093-.1242,11.0424,11.0424,0,0,0-6.298,1.5028Q84.6,42.22,84.6007,44.0334a3.1314,3.1314,0,0,0,.7713,2.1112,5.4621,5.4621,0,0,0,1.8622,1.4039q1.0919.51,2.1983.9687a7.6947,7.6947,0,0,1,1.8766,1.0806,1.8179,1.8179,0,0,1,.7692,1.441,2.6065,2.6065,0,0,1-1.18,2.1117,4.4586,4.4586,0,0,1-2.77.8945,1.3455,1.3455,0,0,1-.9445-.2485q-.6218-.621-.6208-3.5527a4.0783,4.0783,0,0,0-1.54.3232q-.795.3225-.87.5465a23.5249,23.5249,0,0,0-.099,2.9438,7.3344,7.3344,0,0,0,.2248,2.6706A13.734,13.734,0,0,0,87.0114,56.9264Z" transform="translate(-1.2173 -5.8355)"/><path class="cls-1" d="M98.065,55.3865a5.5409,5.5409,0,0,0,4.1987,1.44,4.992,4.992,0,0,0,2.4355-.4717q.2721-.2235.2722-1.3662a2.5,2.5,0,0,0-.198-1.3415.433.433,0,0,0-.1237.05,4.563,4.563,0,0,1-2.0623.447,2.8013,2.8013,0,0,1-2.1612-.7326,2.635,2.635,0,0,1-.6723-1.8509,4.49,4.49,0,0,1,.3733-1.9127,3.0353,3.0353,0,0,1,.87-1.1677,5.0343,5.0343,0,0,1,3.1036-.8945h.1753q.297-.2235.297-1.2915t-.1485-1.1925a4.6635,4.6635,0,0,0-.67-.0252A7.2925,7.2925,0,0,0,98.7476,46.89,6.1784,6.1784,0,0,0,96.7,51.759,5.0589,5.0589,0,0,0,98.065,55.3865Z" transform="translate(-1.2173 -5.8355)"/><path class="cls-1" d="M107.3326,41.7974a1.6572,1.6572,0,0,0-.5465,1.242,1.619,1.619,0,0,0,.4083,1.1554,1.4327,1.4327,0,0,0,1.093.4346,1.8044,1.8044,0,0,0,1.2435-.5094,1.6081,1.6081,0,0,0,.5589-1.23,1.6376,1.6376,0,0,0-.4227-1.1677,1.4519,1.4519,0,0,0-1.1054-.447A1.7322,1.7322,0,0,0,107.3326,41.7974Z" transform="translate(-1.2173 -5.8355)"/><path class="cls-1" d="M109.766,51.4858l.0495-4.0245.0248-1.2667c-.0825-.0995-.3135-.149-.695-.149a3.3719,3.3719,0,0,0-2.0127.447,23.0573,23.0573,0,0,0-.1733,4.1982q0,3.8511.0619,4.5214a7.1609,7.1609,0,0,0,.2867,1.4162q.2226.7455.4454.745a3.8509,3.8509,0,0,0,1.74-.5465q1.0178-.5467,1.0188-.795a3.9316,3.9316,0,0,1-.6352-1.7013A25.8953,25.8953,0,0,1,109.766,51.4858Z" transform="translate(-1.2173 -5.8355)"/><path class="cls-1" d="M120.8959,48.0454a2.3711,2.3711,0,0,0-.9817-2.1741,3.9452,3.9452,0,0,0-2.1488-.6207,5.5782,5.5782,0,0,0-4.4338,1.8009A6.24,6.24,0,0,0,111.754,51.3a5.6308,5.6308,0,0,0,1.3157,3.9126,4.8147,4.8147,0,0,0,3.776,1.4657,6.4872,6.4872,0,0,0,3.3036-.5712,3.5522,3.5522,0,0,0,.6228-2.236c0-.3145-.0185-.4717-.0515-.4717a.101.101,0,0,0-.0743.0247,5.675,5.675,0,0,1-2.98.6708,4.1267,4.1267,0,0,1-1.2064-.1861c-.4042-.1243-.6083-.2862-.6083-.4847a8.5,8.5,0,0,0,3.6893-2.31A4.6153,4.6153,0,0,0,120.8959,48.0454Zm-4.075,2.31a3.5376,3.5376,0,0,1-2.0622,1.0311q-.099,0-.099-.348a4.0956,4.0956,0,0,1,.7713-2.5092,2.2005,2.2005,0,0,1,1.7879-1.043q.77,0,.7692.72A2.853,2.853,0,0,1,116.8209,50.3557Z" transform="translate(-1.2173 -5.8355)"/><path class="cls-1" d="M125.7648,46.9648q-.0742,0-.0743-.5965a9.64,9.64,0,0,1,.0743-1.1924c0-.0825-.1959-.1243-.5836-.1243a4.1974,4.1974,0,0,0-1.2559.2114,2.3575,2.3575,0,0,0-.9445.4846,5.0617,5.0617,0,0,0-.1238,1.6642l.0743,5.59a27.1015,27.1015,0,0,1-.1732,3.6764c0,.05.1691.0748.5093.0748a6.3748,6.3748,0,0,0,1.3033-.1738,2.2935,2.2935,0,0,0,1.12-.497,15.7187,15.7187,0,0,0,.099-2.7577V51.4363l-.0247-.9193V50.17l.1732-.4227a2.1481,2.1481,0,0,1,.6579-.894,1.9454,1.9454,0,0,1,1.33-.4475c.5465,0,.9094.3521,1.093,1.0559a13.5924,13.5924,0,0,1,.2722,3.1552,39.402,39.402,0,0,1-.2475,4.3348l.8187.1242a7.1578,7.1578,0,0,0,1.3178-.1614c.5465-.1077.8187-.22.8187-.3351l.0742-2.9067q0-2.1111-.0742-3.4779a12.8871,12.8871,0,0,0-.198-1.59,10.7756,10.7756,0,0,0-.3609-1.292,3.17,3.17,0,0,0-.5588-1.0682,2.6243,2.6243,0,0,0-2.0746-.894,3.2433,3.2433,0,0,0-1.5385.4346,4.6447,4.6447,0,0,0-1.0558.6955,4.1122,4.1122,0,0,0-.3733.4346Z" transform="translate(-1.2173 -5.8355)"/><path class="cls-1" d="M138.1113,48.48a5.0346,5.0346,0,0,1,3.1037-.8945h.1753q.2969-.2235.2969-1.2915t-.1485-1.1925a4.6624,4.6624,0,0,0-.67-.0252,7.2927,7.2927,0,0,0-5.0071,1.8137,6.1784,6.1784,0,0,0-2.0478,4.8689,5.0589,5.0589,0,0,0,1.3652,3.6275,5.541,5.541,0,0,0,4.1987,1.44,4.9917,4.9917,0,0,0,2.4355-.4717q.2722-.2235.2722-1.3662a2.5013,2.5013,0,0,0-.1979-1.3415.4342.4342,0,0,0-.1238.05,4.5623,4.5623,0,0,1-2.0622.447,2.8012,2.8012,0,0,1-2.1612-.7326,2.635,2.635,0,0,1-.6723-1.8509,4.49,4.49,0,0,1,.3733-1.9127A3.0362,3.0362,0,0,1,138.1113,48.48Z" transform="translate(-1.2173 -5.8355)"/><path class="cls-1" d="M148.4946,56.6779a6.4877,6.4877,0,0,0,3.3037-.5712,3.5522,3.5522,0,0,0,.6228-2.236c0-.3145-.0186-.4717-.0516-.4717a.1007.1007,0,0,0-.0742.0247,5.6755,5.6755,0,0,1-2.98.6708,4.1262,4.1262,0,0,1-1.2064-.1861c-.4042-.1243-.6084-.2862-.6084-.4847a8.4986,8.4986,0,0,0,3.6893-2.31,4.6148,4.6148,0,0,0,1.3549-3.0681,2.3712,2.3712,0,0,0-.9816-2.1741,3.9455,3.9455,0,0,0-2.1488-.6207,5.5782,5.5782,0,0,0-4.4338,1.8009A6.24,6.24,0,0,0,143.403,51.3a5.6308,5.6308,0,0,0,1.3157,3.9126A4.8147,4.8147,0,0,0,148.4946,56.6779ZM147.08,48.53a2.2007,2.2007,0,0,1,1.788-1.043q.77,0,.7692.72a2.853,2.853,0,0,1-1.1672,2.1489,3.5378,3.5378,0,0,1-2.0623,1.0311q-.0988,0-.0989-.348A4.0962,4.0962,0,0,1,147.08,48.53Z" transform="translate(-1.2173 -5.8355)"/><path class="cls-1" d="M100.5252,86.39a128.7438,128.7438,0,0,0-.87-13.937,9.83,9.83,0,0,0,.5589-1.4657,5.6731,5.6731,0,0,0,.3362-1.4657,7.3376,7.3376,0,0,0-2.186-.1243,6.1711,6.1711,0,0,0-2.4107.2238,17.2116,17.2116,0,0,0-1.689,3.6145q-1.2653,3.1923-1.4394,3.7265c-.1176.3562-.2.5341-.25.5341s-.0907-.0413-.1237-.1243q-.5228-1.6393-1.59-4.6333A31.6627,31.6627,0,0,0,89.67,69.621a4.35,4.35,0,0,0-1.5282-.1243q-1.4043,0-2.5715.0748a3.661,3.661,0,0,0-1.2415.1737l-.0248.0748a4.38,4.38,0,0,0,.3094,1.2172,4.4445,4.4445,0,0,0,.6578,1.2915l-.2227,2.5587q-.7207,7.7271-.72,11.9a2.2909,2.2909,0,0,0,.8929.149,3.7571,3.7571,0,0,0,2.51-.5965q-.1238-.6952-.1238-5.08a36.7435,36.7435,0,0,1,.4475-6.6455c.0165-.1155.0413-.1737.0743-.1737s.0742.05.1237.149a41.0514,41.0514,0,0,1,1.689,4.36q1.4662,4.0871,1.54,4.36c.0164.05.1526.1.41.15a5.4141,5.4141,0,0,0,.994.0742c.4042,0,.65-.0907.7321-.2732l.5218-1.7142q.5227-1.7385,1.3033-3.925a24.7919,24.7919,0,0,1,1.2806-3.1052l.1485-.149q.1732,0,.299,3.9.1238,3.13.1238,5.4031t-.0743,3.2918c0,.066.2145.0995.6455.0995a8.3746,8.3746,0,0,0,1.6518-.2114Q100.5243,86.6383,100.5252,86.39Z" transform="translate(-1.2173 -5.8355)"/><path class="cls-1" d="M108.871,75.3349a35.56,35.56,0,0,0-.1484,4.8936v.845a2.13,2.13,0,0,1-.5837,1.1054,1.75,1.75,0,0,1-1.392.7826,1.2219,1.2219,0,0,1-1.1548-.7208,2.1893,2.1893,0,0,1-.1856-.5959c-.0413-.2315-.066-.3934-.0742-.4847-.01-.0907-.0227-.298-.0392-.6207s-.0248-.8239-.0248-1.5028.0413-1.6483.1258-2.9067q.0248-.6458.0248-.6708a1.1708,1.1708,0,0,0-.6971-.1242,3.32,3.32,0,0,0-2.0849.5217,11.91,11.91,0,0,0-.2248,3.18q0,2.6826.05,3.3284.3744,4.05,2.982,4.05a3.4323,3.4323,0,0,0,1.7756-.5465,4.6314,4.6314,0,0,0,1.5034-1.4657l.0247.0495.0247.5217a5.8127,5.8127,0,0,0,.2991,1.441q.2474.7447.4454.745a3.8572,3.8572,0,0,0,1.7405-.5465q1.0178-.5468,1.0188-.795a4.7329,4.7329,0,0,1-.6723-1.9875,17.8518,17.8518,0,0,1-.099-2.4592q0-1.938.1485-5.49l.0495-1.1678a1.4749,1.4749,0,0,0-.7445-.1,3.675,3.675,0,0,0-1.3033.2485A1.5724,1.5724,0,0,0,108.871,75.3349Z" transform="translate(-1.2173 -5.8355)"/><path class="cls-1" d="M116.2249,84.3772a5.38,5.38,0,0,1-2.9551.6707v.1743a3.0761,3.0761,0,0,0,.6207,1.9127q.2227.2985.3464.298a8.6093,8.6093,0,0,0,2.5469-.4594,7.8644,7.8644,0,0,0,2.7077-1.5152,3.0873,3.0873,0,0,0,1.2559-2.3973,2.5926,2.5926,0,0,0-.6476-1.6147,4.9553,4.9553,0,0,0-1.3651-1.1678q-1.94-1.1182-1.9385-1.7637,0-.9188,1.9632-1.54a5.7655,5.7655,0,0,1,1.491-.298,2.9808,2.9808,0,0,0-.4228-1.4038q-.399-.6828-.6454-.6831a7.0927,7.0927,0,0,0-4.0255,1.2672,3.4878,3.4878,0,0,0-1.8869,2.7825,1.995,1.995,0,0,0,.6207,1.3786,5.2826,5.2826,0,0,0,1.3652,1.0558,7.8945,7.8945,0,0,1,1.3672.9193,1.4005,1.4005,0,0,1,.6208.9934Q117.2437,83.707,116.2249,84.3772Z" transform="translate(-1.2173 -5.8355)"/><path class="cls-1" d="M131.2544,77.8565a2.3665,2.3665,0,0,0-.9816-2.1741,3.94,3.94,0,0,0-2.1488-.6208,5.5838,5.5838,0,0,0-4.4338,1.8009,6.24,6.24,0,0,0-1.5776,4.2481,5.6317,5.6317,0,0,0,1.3177,3.9126,4.8119,4.8119,0,0,0,3.776,1.4657,6.4879,6.4879,0,0,0,3.3037-.5712,3.5653,3.5653,0,0,0,.6207-2.236q0-.4718-.0495-.4717a.1007.1007,0,0,0-.0742.0247,5.6887,5.6887,0,0,1-2.982.6708,4.1137,4.1137,0,0,1-1.2044-.1861c-.4062-.1243-.6083-.2862-.6083-.4847a8.4991,8.4991,0,0,0,3.6893-2.31A4.6214,4.6214,0,0,0,131.2544,77.8565Zm-4.0729,2.31a3.543,3.543,0,0,1-2.0622,1.0311q-.099,0-.099-.348a4.1079,4.1079,0,0,1,.7692-2.5092,2.2062,2.2062,0,0,1,1.788-1.043q.77,0,.7712.72A2.8594,2.8594,0,0,1,127.1815,80.1667Z" transform="translate(-1.2173 -5.8355)"/><path class="cls-1" d="M132.8691,79.0366q0,2.6826.0495,3.3284.3744,4.05,2.982,4.05a3.4323,3.4323,0,0,0,1.7756-.5465,4.63,4.63,0,0,0,1.5033-1.4657l.0248.0495.0247.5217a5.8127,5.8127,0,0,0,.2991,1.441q.2474.7447.4454.745a3.8572,3.8572,0,0,0,1.74-.5465q1.0178-.5468,1.0188-.795a4.7329,4.7329,0,0,1-.6723-1.9875,17.8518,17.8518,0,0,1-.099-2.4592q0-1.938.1485-5.49l.0495-1.1678a1.4749,1.4749,0,0,0-.7445-.1,3.675,3.675,0,0,0-1.3033.2485,1.5724,1.5724,0,0,0-.7837.4723,35.549,35.549,0,0,0-.1485,4.8936v.845a2.1283,2.1283,0,0,1-.5836,1.1054,1.75,1.75,0,0,1-1.392.7826,1.2219,1.2219,0,0,1-1.1548-.7208,2.1893,2.1893,0,0,1-.1856-.5959c-.0413-.2315-.066-.3934-.0742-.4847-.01-.0907-.0227-.298-.0392-.6207s-.0248-.8239-.0248-1.5028.0413-1.6483.1258-2.9067q.0248-.6458.0248-.6708a1.1708,1.1708,0,0,0-.6971-.1242,3.32,3.32,0,0,0-2.0849.5217A11.91,11.91,0,0,0,132.8691,79.0366Z" transform="translate(-1.2173 -5.8355)"/><path class="cls-1" d="M157.6365,76.13a2.297,2.297,0,0,0-2.2107-1.3168,3.9322,3.9322,0,0,0-3.1305,1.9875,2.6068,2.6068,0,0,0-3.7388-1.0311,6.3728,6.3728,0,0,0-.9693.646c-.1732.1577-.2928.2732-.3588.348s-.1175.1113-.15.1113-.0495-.19-.0495-.5712.033-.9352.101-1.6642c0-.066-.1918-.0995-.5733-.0995a3.3614,3.3614,0,0,0-1.1919.2361,2.9141,2.9141,0,0,0-.92.5089,5.3452,5.3452,0,0,0-.1237,1.7142l.0742,5.8381a26.1659,26.1659,0,0,1-.1732,3.6517q0,.075.198.0748a3.96,3.96,0,0,0,2.6087-.5965,13.7868,13.7868,0,0,0,.101-2.5587l-.0268-2.633v-.5217a2.52,2.52,0,0,1,.5465-1.2172,1.5987,1.5987,0,0,1,1.3425-.795.9023.9023,0,0,1,.9816.7078,11.07,11.07,0,0,1,.1856,2.4592,34.32,34.32,0,0,1-.2227,3.7636l.794.1242a7.3112,7.3112,0,0,0,1.293-.149c.53-.1.7939-.2149.7939-.3474l.099-1.9628q0-2.8813-.0742-3.6769a.8965.8965,0,0,1,.1608-.3227,2.0323,2.0323,0,0,1,.5342-.5094,1.4413,1.4413,0,0,1,.8455-.2609,1.1158,1.1158,0,0,1,.7836.2856,1.8061,1.8061,0,0,1,.4578.944,7.8359,7.8359,0,0,1,.1877,1.3167q.037.6589.0371,2.1741a37.3148,37.3148,0,0,1-.2743,3.9745l.7961.1242a7.1664,7.1664,0,0,0,1.3157-.1613c.5464-.1078.8207-.22.8207-.3352l.099-2.9067q0-2.2851-.1485-4.4219A8.5186,8.5186,0,0,0,157.6365,76.13Z" transform="translate(-1.2173 -5.8355)"/><path class="cls-1" d="M45.34,100.709a1.0141,1.0141,0,0,0-.9177.5712,2.6222,2.6222,0,0,0-.3279,1.3281,2.319,2.319,0,0,0,.3031,1.2435,1.1382,1.1382,0,0,0,.2867.3109.5523.5523,0,0,0,.2681.1428.8463.8463,0,0,0,.7733-.37,1.5293,1.5293,0,0,1-.6228-1.2271.9775.9775,0,0,0,1.0765-1.0249Q46.1794,100.71,45.34,100.709Z" transform="translate(-1.2173 -5.8355)"/><path class="cls-1" d="M42.6839,100.709a1.0133,1.0133,0,0,0-.9156.5712,2.6222,2.6222,0,0,0-.3279,1.3281,2.3382,2.3382,0,0,0,.3011,1.2435,1.1362,1.1362,0,0,0,.2866.3109.5609.5609,0,0,0,.2681.1428.8464.8464,0,0,0,.7734-.37,1.5272,1.5272,0,0,1-.6208-1.2271.977.977,0,0,0,1.0745-1.0249Q43.5233,100.71,42.6839,100.709Z" transform="translate(-1.2173 -5.8355)"/><path class="cls-1" d="M53.2879,110.5242a7.3789,7.3789,0,0,1-2.8913-.2692,5.6837,5.6837,0,0,1-.0824-1.4786c0-.93.0041-1.4013.0165-1.4116a4.4307,4.4307,0,0,1,1.227-.1773q1.058-.0742,1.4951-.0753c.0227.0113.0845-.0732.1856-.2521a3.0527,3.0527,0,0,0,.4021-1.3781,6.4363,6.4363,0,0,0-1.3095-.05q-1.3116,0-1.9838.017l-.0165-.7058a7.2255,7.2255,0,0,1,.101-1.8488,3.5852,3.5852,0,0,1,1.192-.1763q1.0918-.0757,1.7075-.0758a4.4828,4.4828,0,0,1,.6888.0253c.0495.0165.134-.0588.2516-.2269a3.16,3.16,0,0,0,.3361-.6722,2.1726,2.1726,0,0,0,.1588-.7734,5.6547,5.6547,0,0,0-1.4106-.067,38.1043,38.1043,0,0,0-5.9.1846,3.3734,3.3734,0,0,0,.2949.9079,3.1735,3.1735,0,0,0,.4784.89,4.2467,4.2467,0,0,1,.033.79l-.0165,1.8147q-.8909.0341-.8908.0506a2.3158,2.3158,0,0,0,.2784.9749,2.6665,2.6665,0,0,0,.58.84q-.0341,1.7137-.033,3.2522a5.7,5.7,0,0,0,.0989,1.6219,13.2794,13.2794,0,0,0,2.9511.134,11.6487,11.6487,0,0,0,3.017-.168,2.86,2.86,0,0,0,.5713-.84,2.2627,2.2627,0,0,0,.268-.9579,1.6237,1.6237,0,0,0-.3691.0423A11.1,11.1,0,0,1,53.2879,110.5242Z" transform="translate(-1.2173 -5.8355)"/><path class="cls-1" d="M60.0293,108.2217a21.6015,21.6015,0,0,1,2.5551-3.3279q0-.1848-.6063-.5548a2.2167,2.2167,0,0,0-.79-.37,15.36,15.36,0,0,0-2.285,2.7567,15.94,15.94,0,0,1-1.4126-2.202,2.058,2.058,0,0,0-.8228.5377,1.9157,1.9157,0,0,0-.5548.79,13.449,13.449,0,0,0,1.6292,2.5216,20.5858,20.5858,0,0,0-2.1509,3.4954,2.1687,2.1687,0,0,0,.6805.7146,1.6921,1.6921,0,0,0,.9672.4114,31.5577,31.5577,0,0,1,1.6807-3.0253,12.47,12.47,0,0,0,2.4211,2.7562q.3,0,.8888-.63.5909-.63.59-.95A12.5091,12.5091,0,0,1,60.0293,108.2217Z" transform="translate(-1.2173 -5.8355)"/><path class="cls-1" d="M65.6262,104.7257l.0165-.79a1.1115,1.1115,0,0,0-.4372-.0506,2.38,2.38,0,0,0-.8332.1851,2.007,2.007,0,0,0-.68.3867q.0526.5375.0516,1.9158l-.0846,7.8148q0,1.6812.0681,2.219c0,.034.1113.05.3361.05a4.044,4.044,0,0,0,.8723-.1258,1.5991,1.5991,0,0,0,.7569-.3444,26.5844,26.5844,0,0,1-.1341-3.3614v-.2527a4.9017,4.9017,0,0,0,2.0169-.5207,5.8289,5.8289,0,0,0,1.21-.7486,3.5133,3.5133,0,0,0,.9321-1.21,3.8013,3.8013,0,0,0,.3774-1.7064Q70.095,104.7261,65.6262,104.7257Zm1.7467,5.1932a2.8857,2.8857,0,0,1-1.7983.5888l-.0165-.84.033-2.4716v-.5707l.0165-.2186q2.54,0,2.5386,1.8153A2.0031,2.0031,0,0,1,67.3729,109.9189Z" transform="translate(-1.2173 -5.8355)"/><path class="cls-1" d="M73.3224,109.2641l.033-4.1182q0-3.7476.0845-4.37c0-.0443-.1464-.067-.4371-.067a2.8217,2.8217,0,0,0-1,.2186q-.563.2181-.563.3867c0,.0221.0124.19.035.5042.0207.3134.033.913.033,1.7982L71.44,109.7q0,1.4972.035,1.8663a3.8963,3.8963,0,0,0,.2.8734c.1134.3361.2124.5042.3031.5042a2.6,2.6,0,0,0,1.1776-.3692c.4578-.2464.6887-.4258.6887-.5382a2.9824,2.9824,0,0,1-.4887-1.3446Q73.3214,110.4231,73.3224,109.2641Z" transform="translate(-1.2173 -5.8355)"/><path class="cls-1" d="M81.3568,106.524a3.7932,3.7932,0,0,0-.6475-.5965,1.2,1.2,0,0,0-.6475-.2939,3.2614,3.2614,0,0,0,.0515-.5547.4919.4919,0,0,0-.068-.32,2.77,2.77,0,0,0-.8744-.1005,4.0744,4.0744,0,0,0-3.1511,1.2688,4.1653,4.1653,0,0,0-1.1672,2.9077,3.789,3.789,0,0,0,.94,2.6644,3.3513,3.3513,0,0,0,2.5964,1.0249,3.2288,3.2288,0,0,0,2.6231-1.1682,4.2036,4.2036,0,0,0,.9652-2.7644,3.828,3.828,0,0,0-.1836-1.2188A2.6937,2.6937,0,0,0,81.3568,106.524ZM79.55,110.3056a1.4615,1.4615,0,0,1-1.06.5217,1.649,1.649,0,0,1-.8826-.2021,1.9419,1.9419,0,0,1-.8393-1.8148,2.4,2.4,0,0,1,.596-1.7322,1.771,1.771,0,0,1,1.2868-.6213,1.659,1.659,0,0,0-.0516.42.81.81,0,0,0,.033.2856h.1361a1.39,1.39,0,0,1,.7548.2516,1.4635,1.4635,0,0,1,.5218,1.3456A2.163,2.163,0,0,1,79.55,110.3056Z" transform="translate(-1.2173 -5.8355)"/><path class="cls-1" d="M86.2814,105.2634a2.8146,2.8146,0,0,0-.53.4037c-.1629.1567-.2681.266-.32.3279-.0495.0613-.0866.1062-.1093.134a.0918.0918,0,0,1-.0681.0423,2.005,2.005,0,0,1-.033-.58,9.0737,9.0737,0,0,1,.0516-1.0337c0-.0557-.132-.084-.396-.084a2.8277,2.8277,0,0,0-.8475.1428,1.5963,1.5963,0,0,0-.6393.3279,3.619,3.619,0,0,0-.0681,1.0589l.0351,3.8157a18.6313,18.6313,0,0,1-.12,2.6551c0,.033.0453.05.1361.05a2.7333,2.7333,0,0,0,1.8477-.4537,16.8277,16.8277,0,0,0,.0516-2.0674v-1.48a1.2863,1.2863,0,0,1,.2681-.6042,2.1885,2.1885,0,0,1,1.8993-.992l.2186.0335.068-.1345a2.87,2.87,0,0,0,.2351-1.3611,1.3,1.3,0,0,0-.1361-.6723A2.7783,2.7783,0,0,0,86.2814,105.2634Z" transform="translate(-1.2173 -5.8355)"/><path class="cls-1" d="M94.65,106.6333a1.6,1.6,0,0,0-.664-1.47,2.67,2.67,0,0,0-1.4539-.42,3.7781,3.7781,0,0,0-3.0005,1.2183,4.2216,4.2216,0,0,0-1.0662,2.8742,3.8122,3.8122,0,0,0,.8909,2.6469,3.2561,3.2561,0,0,0,2.553.9919,4.3856,4.3856,0,0,0,2.2355-.3867,2.4044,2.4044,0,0,0,.4207-1.5126c0-.2124-.01-.32-.033-.32a.0724.0724,0,0,0-.0516.0176,3.8448,3.8448,0,0,1-2.0168.4537,2.7563,2.7563,0,0,1-.8146-.1269c-.2743-.0835-.4125-.1928-.4125-.3268a5.7492,5.7492,0,0,0,2.4974-1.5632A3.1251,3.1251,0,0,0,94.65,106.6333Zm-2.7572,1.5636a2.3938,2.3938,0,0,1-1.394.6971q-.0681,0-.0681-.2351a2.7728,2.7728,0,0,1,.5218-1.6978,1.4911,1.4911,0,0,1,1.21-.7057q.52,0,.52.4872A1.9316,1.9316,0,0,1,91.8927,108.1969Z" transform="translate(-1.2173 -5.8355)"/><path class="cls-1" d="M101.4058,101.0787c0-.0444-.1444-.0671-.4372-.0671a2.9475,2.9475,0,0,0-1.0167.2186c-.3856.1454-.5795.2743-.5795.3862a3.0743,3.0743,0,0,0,.0516.3361,9.65,9.65,0,0,1,.0495,1.2606q-.52.017-.8909.0335c-.1011.09-.1506.35-.1506.7815a1.617,1.617,0,0,0,.0825.7311l.9425-.0165q-.0495,2.0169-.0516,4.2853,0,2.269.0433,2.64a2.7418,2.7418,0,0,0,.2021.7558,2.16,2.16,0,0,0,.3011.5547c.0949.1114.1609.1681.1939.1681a2.5588,2.5588,0,0,0,1.2187-.3527c.431-.2361.6476-.4155.6476-.5382a2.2335,2.2335,0,0,1-.6888-1.4281q-.0526-.5212-.0516-2.0767,0-1.5528.033-4.0414h.79c.101,0,.2082-.1485.32-.4454a2.8366,2.8366,0,0,0,.1691-1.0172,5.9917,5.9917,0,0,0-1.26-.05Q101.3728,101.4657,101.4058,101.0787Z" transform="translate(-1.2173 -5.8355)"/><path class="cls-1" d="M109.3392,106.524a3.7787,3.7787,0,0,0-.6455-.5965,1.2066,1.2066,0,0,0-.6476-.2939,3.4618,3.4618,0,0,0,.05-.5547.5075.5075,0,0,0-.066-.32,2.7688,2.7688,0,0,0-.8743-.1005,4.0713,4.0713,0,0,0-3.1511,1.2688,4.1674,4.1674,0,0,0-1.1693,2.9077,3.7812,3.7812,0,0,0,.9424,2.6644,3.3513,3.3513,0,0,0,2.5964,1.0249,3.2222,3.2222,0,0,0,2.6211-1.1682,4.1951,4.1951,0,0,0,.9671-2.7644,3.769,3.769,0,0,0-.1856-1.2188A2.6529,2.6529,0,0,0,109.3392,106.524Zm-1.8066,3.7816a1.4538,1.4538,0,0,1-1.0579.5217,1.649,1.649,0,0,1-.8826-.2021,1.939,1.939,0,0,1-.8414-1.8148,2.4,2.4,0,0,1,.5981-1.7322,1.7633,1.7633,0,0,1,1.2847-.6213,1.7593,1.7593,0,0,0-.0495.42.7614.7614,0,0,0,.033.2856h.1341a1.3907,1.3907,0,0,1,.7568.2516,1.4681,1.4681,0,0,1,.5217,1.3456A2.1635,2.1635,0,0,1,107.5326,110.3056Z" transform="translate(-1.2173 -5.8355)"/><path class="cls-1" d="M117.4581,105.7846a1.7268,1.7268,0,0,0-.7238-.101h-.1835l.0165-.2521a3.4439,3.4439,0,0,0-.0516-.6218c0-.0556-.1959-.084-.5877-.084a4.9886,4.9886,0,0,0-3.7141,1.3111,4.5343,4.5343,0,0,0-1.2951,3.3274,3.241,3.241,0,0,0,.6723,2,2.1411,2.1411,0,0,0,1.7983.8909,2.4338,2.4338,0,0,0,2.2024-1.092l.0495-.05c.0124,0,.0186.0227.0186.067a7.5042,7.5042,0,0,1-.2372,1.9994,4.0612,4.0612,0,0,1-.5527,1.295,2.6208,2.6208,0,0,1-.7733.7053,2.5212,2.5212,0,0,1-.7651.3279,3.4832,3.4832,0,0,1-.6475.0588h-.32a2.783,2.783,0,0,0,.1341.8063,3.2332,3.2332,0,0,0,.2866.69c.1011.1681.1671.2516.2021.2516a4.3666,4.3666,0,0,0,2.1344-.5877,4.2456,4.2456,0,0,0,1.159-.9167,4.6206,4.6206,0,0,0,.8579-1.58,7.0859,7.0859,0,0,0,.3526-2.3272l-.033-3.9832Zm-1.8993,3.1764a1.3519,1.3519,0,0,1-.4042.7568,1.2644,1.2644,0,0,1-1,.47,1.0964,1.0964,0,0,1-.9074-.3867,1.3983,1.3983,0,0,1-.3114-.9073,2.4952,2.4952,0,0,1,.631-1.74,2.1837,2.1837,0,0,1,1.7055-.6976l.3526.0506Q115.56,107.0457,115.5588,108.961Z" transform="translate(-1.2173 -5.8355)"/><path class="cls-1" d="M124.8512,106.6333a1.6036,1.6036,0,0,0-.662-1.47,2.67,2.67,0,0,0-1.4538-.42,3.7783,3.7783,0,0,0-3.0006,1.2183,4.2239,4.2239,0,0,0-1.0682,2.8742,3.8122,3.8122,0,0,0,.8909,2.6469,3.2578,3.2578,0,0,0,2.5551.9919,4.39,4.39,0,0,0,2.2354-.3867,2.4038,2.4038,0,0,0,.4207-1.5126c0-.2124-.0124-.32-.035-.32a.0638.0638,0,0,0-.0495.0176,3.8454,3.8454,0,0,1-2.0169.4537,2.7563,2.7563,0,0,1-.8146-.1269c-.2763-.0835-.4124-.1928-.4124-.3268a5.7416,5.7416,0,0,0,2.4953-1.5632A3.1251,3.1251,0,0,0,124.8512,106.6333Zm-2.7551,1.5636a2.3989,2.3989,0,0,1-1.3961.6971c-.0434,0-.066-.0784-.066-.2351a2.7856,2.7856,0,0,1,.52-1.6978,1.4942,1.4942,0,0,1,1.2106-.7057c.3485,0,.5217.1624.5217.4872A1.9384,1.9384,0,0,1,122.0961,108.1969Z" transform="translate(-1.2173 -5.8355)"/><path class="cls-1" d="M128.0786,101.0787c0-.0444-.1444-.0671-.4372-.0671a2.9475,2.9475,0,0,0-1.0167.2186c-.3856.1454-.58.2743-.58.3862a3.0743,3.0743,0,0,0,.0516.3361,9.65,9.65,0,0,1,.0495,1.2606q-.52.017-.8909.0335c-.101.09-.15.35-.15.7815a1.6154,1.6154,0,0,0,.0825.7311l.9424-.0165q-.05,2.0169-.0516,4.2853,0,2.269.0433,2.64a2.7453,2.7453,0,0,0,.2021.7558,2.1636,2.1636,0,0,0,.3011.5547c.0949.1114.1609.1681.1939.1681a2.5588,2.5588,0,0,0,1.2187-.3527q.6467-.3541.6476-.5382a2.2335,2.2335,0,0,1-.6888-1.4281q-.0526-.5212-.0516-2.0767,0-1.5528.033-4.0414h.79c.101,0,.2083-.1485.32-.4454a2.8366,2.8366,0,0,0,.1691-1.0172,5.9917,5.9917,0,0,0-1.26-.05Q128.0456,101.4657,128.0786,101.0787Z" transform="translate(-1.2173 -5.8355)"/><path class="cls-1" d="M135.8346,106.8854a6.4357,6.4357,0,0,0-.2268-.8234,1.9056,1.9056,0,0,0-.3692-.68,1.9718,1.9718,0,0,0-.5465-.4037,1.7959,1.7959,0,0,0-.8228-.1681,2.3015,2.3015,0,0,0-1.06.2944,3.95,3.95,0,0,0-.7465.462l-.3361.3361c-.0351,0-.0516-.0278-.0516-.084v-.1511q0-.6387.0516-2.6891.05-2.05.066-2.202c0-.0443-.14-.067-.4207-.067a2.3074,2.3074,0,0,0-.8724.1851,2.0091,2.0091,0,0,0-.6557.3861,7.2647,7.2647,0,0,0-.0846,1.7148l.0495,5.8319a28.2144,28.2144,0,0,1-.134,3.6471c0,.033.0453.05.134.05a2.8191,2.8191,0,0,0,1.85-.4537,4.9223,4.9223,0,0,0,.0846-1.3951q0-1.3271-.0351-2.488l.1526-.3187a1.8448,1.8448,0,0,1,.4867-.6382,1.1078,1.1078,0,0,1,.7568-.32.8313.8313,0,0,1,.8229.7223,8.4128,8.4128,0,0,1,.2021,2.1179,26.0345,26.0345,0,0,1-.1691,2.9078l.5547.0845a4.7055,4.7055,0,0,0,.8579-.101c.3464-.0671.5382-.1454.5712-.2351l.0681-2.2355q0-1.3611-.0516-2.2519A8.7347,8.7347,0,0,0,135.8346,106.8854Z" transform="translate(-1.2173 -5.8355)"/><path class="cls-1" d="M143.3721,106.6333a1.6039,1.6039,0,0,0-.662-1.47,2.67,2.67,0,0,0-1.4539-.42,3.7779,3.7779,0,0,0-3.0005,1.2183,4.2235,4.2235,0,0,0-1.0683,2.8742,3.8122,3.8122,0,0,0,.8909,2.6469,3.2578,3.2578,0,0,0,2.5551.9919,4.3907,4.3907,0,0,0,2.2355-.3867,2.4044,2.4044,0,0,0,.4207-1.5126c0-.2124-.0124-.32-.0351-.32a.0638.0638,0,0,0-.0495.0176,3.845,3.845,0,0,1-2.0168.4537,2.7563,2.7563,0,0,1-.8146-.1269c-.2764-.0835-.4125-.1928-.4125-.3268a5.7416,5.7416,0,0,0,2.4953-1.5632A3.1252,3.1252,0,0,0,143.3721,106.6333Zm-2.7552,1.5636a2.3984,2.3984,0,0,1-1.3961.6971c-.0433,0-.066-.0784-.066-.2351a2.785,2.785,0,0,1,.52-1.6978,1.4939,1.4939,0,0,1,1.21-.7057c.3485,0,.5218.1624.5218.4872A1.9382,1.9382,0,0,1,140.6169,108.1969Z" transform="translate(-1.2173 -5.8355)"/><path class="cls-1" d="M147.5914,105.2634a2.88,2.88,0,0,0-.53.4037c-.1609.1567-.2681.266-.3176.3279-.0516.0613-.0887.1062-.1093.134a.0918.0918,0,0,1-.0681.0423,1.9167,1.9167,0,0,1-.033-.58,9.6263,9.6263,0,0,1,.0495-1.0337c0-.0557-.1319-.084-.3938-.084a2.8514,2.8514,0,0,0-.85.1428,1.5977,1.5977,0,0,0-.6393.3279,3.7619,3.7619,0,0,0-.066,1.0589l.033,3.8157a18.7406,18.7406,0,0,1-.1175,2.6551c0,.033.0454.05.134.05a2.7362,2.7362,0,0,0,1.85-.4537,17.1728,17.1728,0,0,0,.0495-2.0674v-1.48a1.296,1.296,0,0,1,.27-.6042,2.1825,2.1825,0,0,1,1.8972-.992l.2186.0335.0681-.1345a2.8713,2.8713,0,0,0,.2351-1.3611,1.3238,1.3238,0,0,0-.1341-.6723A2.79,2.79,0,0,0,147.5914,105.2634Z" transform="translate(-1.2173 -5.8355)"/><path class="cls-1" d="M153.5409,100.709a1.0067,1.0067,0,0,0-1.06.9749q0,1.0254.9259,1.0249a1.7984,1.7984,0,0,1-.8413,1.2271.6706.6706,0,0,0,.26.2521.7429.7429,0,0,0,.3877.1175.7518.7518,0,0,0,.4619-.2521,3.1016,3.1016,0,0,0,.8064-2,1.742,1.742,0,0,0-.2434-.9749A.7851.7851,0,0,0,153.5409,100.709Z" transform="translate(-1.2173 -5.8355)"/><path class="cls-1" d="M150.8352,100.709a1.0067,1.0067,0,0,0-1.06.9749c0,.6836.3093,1.0249.9238,1.0249a1.7948,1.7948,0,0,1-.8393,1.2271.6717.6717,0,0,0,.26.2521.7426.7426,0,0,0,.3877.1175.7518.7518,0,0,0,.4619-.2521,3.1023,3.1023,0,0,0,.8063-2,1.742,1.742,0,0,0-.2433-.9749A.7876.7876,0,0,0,150.8352,100.709Z" transform="translate(-1.2173 -5.8355)"/><path class="cls-2" d="M70.1082,50.8585a29.6536,29.6536,0,1,0-39.9942,27.8,1.0114,1.0114,0,0,0,1.3132-.6326l5.4-16.4372a1.014,1.014,0,0,0-.5584-1.2433,10.367,10.367,0,1,1,8.369.0015,1.0121,1.0121,0,0,0-.5551,1.2416l5.4,16.4374a1.0113,1.0113,0,0,0,1.3126.6329A29.6646,29.6646,0,0,0,70.1082,50.8585Z" transform="translate(-1.2173 -5.8355)"/><path class="cls-3" d="M51.2678,79.9829a4.4724,4.4724,0,0,1-.9116.1318c-2.5883,6.9459-6.071,11.201-9.9016,11.201-7.9908,0-14.4686-18.5139-14.4686-41.3519s6.4778-41.352,14.4686-41.352c4.1559,0,7.9025,5.0081,10.5414,13.0275.2327.0926,1.35.5087,1.4454.5621C49.6118,12.2437,45.2928,5.855,40.4546,5.855c-8.5235,0-15.4332,19.7482-15.4332,44.1088s6.91,44.1087,15.4332,44.1087c4.5008,0,8.54-5.54,11.3609-14.3244C51.6866,79.7933,51.3852,79.9437,51.2678,79.9829Z" transform="translate(-1.2173 -5.8355)"/><circle class="cls-4" cx="30.5879" cy="9.5002" r="2.8558"/><path class="cls-3" d="M9.9576,44.9551c-4.742-5.6973-6.5869-10.8338-4.6837-14.1582,3.97-6.9347,23.2557-3.358,43.0755,7.9888S81.0179,64.9528,77.0477,71.8875c-2.0648,3.6067-8.2766,4.3909-16.5474,2.6967a2.0733,2.0733,0,0,0-.1956.1565,4.2939,4.2939,0,0,0-.3926.3213c-.1073.1039-.2817.2018-.39.3046a.8652.8652,0,0,1-.1956.1565c10.0476,2.4917,17.71,1.9329,20.1135-2.2659C83.675,65.86,69.97,50.052,48.8286,37.9486S7.1162,22.03,2.8814,29.4272c-2.2362,3.906.6087,10.1574,6.8305,16.97" transform="translate(-1.2173 -5.8355)"/><circle class="cls-4" cx="74.2926" cy="55.2051" r="2.8558"/><path class="cls-3" d="M61.39,27.7609c7.3068-1.2472,12.6763-.2688,14.5988,3.0445,4.01,6.9115-8.7521,21.8061-28.5056,33.2679S8.4654,79.2238,4.4551,72.3122c-2.0858-3.5946-.0417-8.8541,5.57-15.1614-.0089-.1408-.2241-1.3528-.2257-1.462C2.607,63.1338-.3576,69.511,2.0706,73.6958c4.2777,7.3723,24.8265,3.4377,45.897-8.7882S82.6512,36.7941,78.3735,29.4218c-2.2588-3.8929-9.0941-4.565-18.1079-2.5964" transform="translate(-1.2173 -5.8355)"/><circle class="cls-4" cx="13.3944" cy="70.5834" r="2.8558"/></svg>