<?xml version="1.0" encoding="utf-8"?>
<!-- Generator: Adobe Illustrator 23.0.2, SVG Export Plug-In . SVG Version: 6.00 Build 0)  -->
<svg version="1.1" id="Layer_1" xmlns="http://www.w3.org/2000/svg" xmlns:xlink="http://www.w3.org/1999/xlink" x="0px" y="0px"
	 viewBox="0 0 160 95.5" style="enable-background:new 0 0 160 95.5;" xml:space="preserve">
<style type="text/css">
	.st0{fill:#BBBDBF;}
	.st1{fill:#3FA652;stroke:#21552A;stroke-width:2.4135;stroke-miterlimit:10;}
	.st2{fill:#FFFFFF;stroke:#FFFFFF;stroke-width:3.352024e-02;stroke-miterlimit:10;}
	.st3{fill:#FFFFFF;stroke:#FFFFFF;stroke-width:1.1097;stroke-miterlimit:10;}
</style>
<g>
	<g>
		<path class="st0" d="M77.4,18.2c0.9,0,1.9-0.2,2.7-0.5c0.9-0.4,1.6-0.7,2-1.1s0.7-0.6,0.7-0.7c0-0.1-0.2-0.5-0.5-1
			c-0.2-0.3-0.3-0.5-0.5-0.7c-0.2-0.2-0.3-0.3-0.4-0.3c-1.3,1.2-2.6,1.9-3.9,1.9c-0.7,0-1.2-0.1-1.7-0.4c-0.5-0.3-0.9-0.6-1.1-1
			c-0.5-0.8-0.7-1.7-0.7-2.6c0-1.8,0.4-3.3,1.3-4.4C76.1,6.3,77,5.8,78,5.8c0.5,0,0.8,0.1,1,0.4c0.2,0.3,0.3,0.7,0.3,1.3v0.1
			c0.3,0,0.6-0.1,1.2-0.2c0.5-0.2,0.8-0.3,0.9-0.3c0,0,0.1-0.5,0.2-1.3c0.1-0.9,0.1-1.6,0.1-2.3c0,0-0.2-0.1-0.5-0.2
			c-0.4-0.1-0.8-0.1-1.2-0.1c-1.3,0-2.6,0.2-3.6,0.6c-1.1,0.4-1.9,0.9-2.5,1.5c-0.6,0.6-1.1,1.3-1.6,2.1c-0.7,1.4-1.1,2.9-1.1,4.5
			c0,1.9,0.5,3.4,1.6,4.6C73.7,17.6,75.3,18.2,77.4,18.2z"/>
		<path class="st0" d="M88.2,18.1c1.4,0,2.5-0.5,3.3-1.5s1.2-2.2,1.2-3.5c0-0.6-0.1-1.1-0.2-1.5c-0.2-0.5-0.3-0.8-0.6-1.1
			c-0.2-0.3-0.5-0.5-0.8-0.8c-0.3-0.2-0.6-0.4-0.8-0.4c0-0.3,0.1-0.5,0.1-0.7c0-0.2,0-0.3-0.1-0.4c-0.1-0.1-0.4-0.1-1.1-0.1
			c-1.7,0-3,0.5-4,1.6c-1,1.1-1.5,2.3-1.5,3.7s0.4,2.5,1.2,3.4C85.7,17.7,86.8,18.1,88.2,18.1z M86.9,11.2c0.5-0.5,1-0.8,1.6-0.8
			c0,0.2-0.1,0.3-0.1,0.5c0,0.2,0,0.3,0,0.4h0.2c0.3,0,0.6,0.1,1,0.3c0.4,0.3,0.7,0.8,0.7,1.7c0,0.9-0.2,1.5-0.6,2
			c-0.4,0.4-0.9,0.7-1.3,0.7c-0.5,0-0.8-0.1-1.1-0.3c-0.7-0.4-1.1-1.2-1.1-2.3C86.2,12.4,86.4,11.7,86.9,11.2z"/>
		<path class="st0" d="M94.6,18.1c1.1,0,1.9-0.2,2.2-0.5c0.1-0.1,0.1-0.8,0.1-2.2l0-2.3v-0.4c0-0.2,0.2-0.6,0.5-1
			c0.3-0.5,0.7-0.7,1.2-0.7s0.7,0.2,0.8,0.6c0.1,0.4,0.2,1.1,0.2,2.1c0,1-0.1,2.1-0.2,3.2l0.7,0.1c0.3,0,0.7,0,1.1-0.1
			c0.5-0.1,0.7-0.2,0.7-0.3l0.1-1.7c0-1.6,0-2.7-0.1-3.2c0,0,0-0.1,0.1-0.3c0.1-0.1,0.2-0.3,0.5-0.4c0.2-0.1,0.5-0.2,0.7-0.2
			c0.3,0,0.5,0.1,0.7,0.2c0.2,0.2,0.3,0.4,0.4,0.8c0.1,0.4,0.1,0.8,0.2,1.1c0,0.4,0,1,0,1.9c0,0.9-0.1,2-0.2,3.4l0.7,0.1
			c0.3,0,0.7,0,1.1-0.1c0.5-0.1,0.7-0.2,0.7-0.3l0.1-2.5c0-1.3,0-2.6-0.1-3.8c-0.1-0.8-0.3-1.7-0.7-2.5c-0.4-0.8-1-1.1-1.9-1.1
			c-1,0-1.9,0.6-2.7,1.7c-0.5-0.8-1.2-1.2-2.1-1.2c-0.3,0-0.7,0.1-1.1,0.4c-0.4,0.2-0.7,0.4-0.8,0.6c-0.1,0.1-0.3,0.2-0.3,0.3
			C97,9.8,97,9.8,96.9,9.8s0-0.2,0-0.5s0-0.8,0.1-1.4c0-0.1-0.2-0.1-0.5-0.1c-0.3,0-0.7,0.1-1,0.2c-0.4,0.1-0.6,0.3-0.8,0.4
			c-0.1,0.1-0.1,0.6-0.1,1.5l0.1,5c0,1.5,0,2.5-0.1,3.1C94.5,18.1,94.5,18.1,94.6,18.1z"/>
		<path class="st0" d="M108.9,18.1c1.1,0,1.9-0.2,2.2-0.5c0.1-0.1,0.1-0.8,0.1-2.2l0-2.3v-0.4c0-0.2,0.2-0.6,0.5-1
			c0.3-0.5,0.7-0.7,1.2-0.7c0.5,0,0.7,0.2,0.8,0.6c0.1,0.4,0.2,1.1,0.2,2.1c0,1-0.1,2.1-0.2,3.2l0.7,0.1c0.3,0,0.7,0,1.1-0.1
			c0.5-0.1,0.7-0.2,0.7-0.3l0.1-1.7c0-1.6,0-2.7-0.1-3.2c0,0,0-0.1,0.1-0.3c0.1-0.1,0.2-0.3,0.5-0.4c0.2-0.1,0.5-0.2,0.7-0.2
			s0.5,0.1,0.7,0.2c0.2,0.2,0.3,0.4,0.4,0.8c0.1,0.4,0.1,0.8,0.2,1.1c0,0.4,0,1,0,1.9c0,0.9-0.1,2-0.2,3.4l0.7,0.1
			c0.3,0,0.7,0,1.1-0.1s0.7-0.2,0.7-0.3l0.1-2.5c0-1.3,0-2.6-0.1-3.8c-0.1-0.8-0.3-1.7-0.7-2.5c-0.4-0.8-1-1.1-1.9-1.1
			c-1,0-1.9,0.6-2.7,1.7c-0.5-0.8-1.2-1.2-2.1-1.2c-0.3,0-0.7,0.1-1.1,0.4c-0.4,0.2-0.7,0.4-0.8,0.6c-0.1,0.1-0.3,0.2-0.3,0.3
			c-0.1,0.1-0.1,0.1-0.1,0.1c0,0,0-0.2,0-0.5s0-0.8,0.1-1.4c0-0.1-0.2-0.1-0.5-0.1c-0.3,0-0.7,0.1-1,0.2c-0.4,0.1-0.6,0.3-0.8,0.4
			c-0.1,0.1-0.1,0.6-0.1,1.5l0.1,5c0,1.5,0,2.5-0.1,3.1C108.7,18.1,108.8,18.1,108.9,18.1z"/>
		<path class="st0" d="M125.3,18c0.5,0,1-0.2,1.5-0.5c0.5-0.3,0.9-0.7,1.3-1.3l0,0l0,0.4c0,0.4,0.1,0.8,0.3,1.2
			c0.1,0.4,0.3,0.6,0.4,0.6c0.4,0,0.9-0.2,1.5-0.5c0.6-0.3,0.9-0.5,0.9-0.7c-0.3-0.4-0.5-1-0.6-1.7c-0.1-0.3-0.1-1-0.1-2.1
			s0-2.7,0.1-4.7l0-1c-0.1-0.1-0.3-0.1-0.6-0.1c-0.4,0-0.7,0.1-1.1,0.2c-0.4,0.1-0.6,0.3-0.7,0.4c-0.1,0.2-0.1,1.6-0.1,4.2v0.7
			c0,0.2-0.2,0.5-0.5,0.9s-0.7,0.7-1.2,0.7c-0.4,0-0.8-0.2-1-0.6c-0.1-0.1-0.1-0.3-0.2-0.5c0-0.2-0.1-0.3-0.1-0.4c0-0.1,0-0.3,0-0.5
			c0-0.3,0-0.7,0-1.3c0-0.6,0-1.4,0.1-2.5c0-0.4,0-0.6,0-0.6c-0.1-0.1-0.3-0.1-0.6-0.1c-0.8,0-1.4,0.1-1.8,0.4
			c-0.1,0.3-0.2,1.2-0.2,2.7c0,1.5,0,2.5,0,2.9C123,16.8,123.9,18,125.3,18z"/>
		<path class="st0" d="M140.4,11.1c-0.1-0.3-0.2-0.7-0.3-1.1c-0.1-0.4-0.3-0.7-0.5-0.9c-0.2-0.2-0.4-0.4-0.7-0.5
			c-0.3-0.1-0.6-0.2-1.1-0.2s-0.9,0.1-1.3,0.4c-0.5,0.2-0.8,0.4-0.9,0.6c-0.1,0.1-0.2,0.3-0.3,0.4l-0.1,0c0,0-0.1-0.2-0.1-0.5
			c0-0.3,0-0.7,0.1-1c0-0.1-0.2-0.1-0.5-0.1c-0.3,0-0.7,0.1-1.1,0.2c-0.4,0.1-0.7,0.3-0.8,0.4c-0.1,0.1-0.1,0.5-0.1,1.4l0.1,4.8
			c0,1.5,0,2.5-0.1,3.2c0,0,0.1,0.1,0.4,0.1s0.7,0,1.1-0.1c0.5-0.1,0.8-0.2,1-0.4c0.1-0.1,0.1-0.8,0.1-2.4v-1.6l0-0.8v-0.3l0.1-0.4
			c0.1-0.3,0.3-0.5,0.6-0.8c0.3-0.3,0.7-0.4,1.1-0.4c0.5,0,0.8,0.3,0.9,0.9c0.2,0.6,0.2,1.5,0.2,2.7c0,1.2-0.1,2.4-0.2,3.7l0.7,0.1
			c0.3,0,0.7,0,1.1-0.1c0.5-0.1,0.7-0.2,0.7-0.3l0.1-2.5c0-1.2,0-2.2-0.1-3C140.6,11.9,140.5,11.4,140.4,11.1z"/>
		<path class="st0" d="M145.1,13.6l0-3.4l0-1.1c-0.1-0.1-0.3-0.1-0.6-0.1c-0.8,0-1.4,0.1-1.7,0.4c-0.1,0.2-0.1,1.4-0.1,3.6
			c0,2.2,0,3.5,0.1,3.9c0,0.4,0.1,0.8,0.2,1.2c0.1,0.4,0.3,0.6,0.4,0.6c0.4,0,0.9-0.2,1.5-0.5c0.6-0.3,0.9-0.5,0.9-0.7
			c-0.3-0.5-0.5-0.9-0.5-1.5S145.1,14.7,145.1,13.6z"/>
		<path class="st0" d="M143.9,7.7c0.4,0,0.7-0.1,1.1-0.4c0.3-0.3,0.5-0.6,0.5-1.1c0-0.4-0.1-0.7-0.4-1c-0.2-0.3-0.6-0.4-0.9-0.4
			s-0.7,0.1-1.1,0.4c-0.3,0.3-0.5,0.7-0.5,1.1c0,0.4,0.1,0.7,0.3,1C143.2,7.6,143.5,7.7,143.9,7.7z"/>
		<path class="st0" d="M150,3.6c0-0.1-0.2-0.1-0.6-0.1s-0.8,0.1-1.3,0.3c-0.5,0.2-0.7,0.3-0.7,0.5c0,0,0,0.2,0.1,0.4
			c0,0.2,0.1,0.8,0.1,1.6c-0.4,0-0.8,0-1.1,0c-0.1,0.1-0.2,0.4-0.2,1c0,0.5,0,0.9,0.1,0.9l1.2,0c0,1.7-0.1,3.5-0.1,5.4s0,3,0.1,3.3
			c0,0.3,0.1,0.6,0.3,1c0.1,0.3,0.3,0.6,0.4,0.7c0.1,0.1,0.2,0.2,0.2,0.2c0.5,0,1-0.1,1.5-0.4c0.5-0.3,0.8-0.5,0.8-0.7
			c-0.5-0.5-0.8-1.1-0.9-1.8c0-0.4-0.1-1.3-0.1-2.6c0-1.3,0-3,0-5.1h1c0.1,0,0.3-0.2,0.4-0.6c0.1-0.4,0.2-0.8,0.2-1.3
			c0,0-0.5-0.1-1.6-0.1C149.9,4.8,149.9,3.9,150,3.6z"/>
		<path class="st0" d="M160,8.1c0,0-0.1-0.1-0.4-0.1c-0.3,0-0.7,0-1.1,0.1c-0.5,0.1-0.8,0.2-1,0.4c-0.1,0.1-0.1,0.6-0.1,1.6
			s0,2,0,2.9l-0.1,0.4c-0.1,0.3-0.2,0.5-0.5,0.8c-0.3,0.3-0.7,0.4-1.1,0.4c-0.5,0-0.8-0.3-1-1c-0.2-0.6-0.3-1.4-0.3-2.4
			c0-1,0.1-2.1,0.2-3.6l-0.7-0.1c-0.3,0-0.6,0-1.1,0.1c-0.4,0.1-0.6,0.2-0.6,0.3l-0.1,0.3c-0.1,0.7-0.2,1.6-0.2,2.7
			c0,0.8,0,1.6,0.1,2.3c0,0.5,0.1,1,0.2,1.3c0.1,0.3,0.2,0.6,0.3,1c0.1,0.4,0.3,0.6,0.5,0.8c0.2,0.2,0.4,0.4,0.7,0.5
			c0.3,0.1,0.7,0.2,1.2,0.2c0.5,0,1-0.2,1.5-0.5c0.2-0.1,0.4-0.3,0.5-0.4c0.2-0.2,0.3-0.3,0.3-0.3c0-0.1,0.1-0.1,0.1-0.2
			c0,0,0.1-0.1,0.1-0.1c0,0,0,0,0,0.1l0,0.6c0,1.6-0.2,2.7-0.7,3.4c-0.2,0.4-0.4,0.6-0.6,0.9c-0.2,0.2-0.6,0.5-1.1,0.7
			c-0.5,0.2-1.1,0.3-1.6,0.3c0,0.3,0.1,0.6,0.2,1c0.1,0.4,0.2,0.6,0.4,0.9c0.1,0.2,0.2,0.3,0.3,0.3c0.9,0,1.8-0.2,2.7-0.7
			c0.5-0.3,1-0.7,1.4-1.1c0.4-0.5,0.8-1.1,1.1-2c0.3-0.9,0.4-1.9,0.4-3l0-5.7C159.8,10,159.9,8.8,160,8.1z"/>
		<path class="st0" d="M73.5,43.8c2.1,0,3.8-0.5,5.2-1.5s2.1-2.2,2.1-3.7c0-0.8-0.2-1.5-0.6-2.1s-1-1-1.6-1.3
			c-0.6-0.3-1.2-0.6-1.8-0.8c-0.6-0.2-1.1-0.5-1.6-0.8s-0.6-0.6-0.6-1c0-0.4,0.1-0.7,0.4-0.9c0.3-0.3,0.6-0.4,1.1-0.6
			c0.4-0.1,0.9-0.2,1.3-0.3c0.4-0.1,0.8-0.1,1.1-0.1c0.3,0,0.5,0,0.8,0c0.2-0.2,0.3-0.5,0.4-1c0.1-0.5,0.1-0.8,0.1-0.9
			c0-0.2,0-0.3,0-0.3c-0.1-0.1-0.4-0.1-0.9-0.1c-2.4,0-4.2,0.4-5.4,1.3c-1.2,0.9-1.9,1.8-1.9,2.8c0,0.7,0.2,1.3,0.7,1.8
			c0.4,0.5,1,0.9,1.6,1.2c0.6,0.3,1.3,0.6,1.9,0.8c0.6,0.3,1.2,0.6,1.6,0.9c0.4,0.4,0.7,0.8,0.7,1.2c0,0.7-0.3,1.3-1,1.8
			c-0.7,0.5-1.5,0.8-2.4,0.8c-0.4,0-0.7-0.1-0.8-0.2c-0.4-0.4-0.5-1.4-0.5-3c-0.4,0-0.9,0.1-1.3,0.3c-0.5,0.2-0.7,0.3-0.7,0.5
			C71,39.1,71,39.9,71,41.3s0.1,2.2,0.2,2.3C71.7,43.7,72.5,43.8,73.5,43.8z"/>
		<path class="st0" d="M83,42.5c0.8,0.8,2,1.2,3.6,1.2c0.9,0,1.6-0.1,2.1-0.4c0.2-0.1,0.2-0.5,0.2-1.2s-0.1-1-0.2-1.1c0,0,0,0-0.1,0
			c-0.5,0.3-1.1,0.4-1.8,0.4c-0.9,0-1.5-0.2-1.9-0.6c-0.4-0.4-0.6-0.9-0.6-1.6s0.1-1.2,0.3-1.6c0.2-0.5,0.5-0.8,0.7-1
			c0.7-0.5,1.6-0.8,2.7-0.8h0.2c0.2-0.1,0.3-0.5,0.3-1.1c0-0.6,0-1-0.1-1c-0.1,0-0.2,0-0.6,0c-1.7,0-3.1,0.5-4.3,1.6
			c-1.2,1-1.8,2.4-1.8,4.2C81.8,40.6,82.2,41.6,83,42.5z"/>
		<path class="st0" d="M90.9,30.8c-0.3,0.3-0.5,0.7-0.5,1.1c0,0.4,0.1,0.7,0.3,1c0.2,0.2,0.5,0.4,0.9,0.4c0.4,0,0.7-0.1,1.1-0.4
			c0.3-0.3,0.5-0.6,0.5-1.1c0-0.4-0.1-0.7-0.4-1c-0.2-0.3-0.6-0.4-0.9-0.4C91.6,30.4,91.2,30.5,90.9,30.8z"/>
		<path class="st0" d="M93,39.1l0-3.4l0-1.1c-0.1-0.1-0.3-0.1-0.6-0.1c-0.8,0-1.4,0.1-1.7,0.4c-0.1,0.2-0.1,1.4-0.1,3.6
			c0,2.2,0,3.5,0.1,3.9c0,0.4,0.1,0.8,0.2,1.2c0.1,0.4,0.3,0.6,0.4,0.6c0.4,0,0.9-0.2,1.5-0.5c0.6-0.3,0.9-0.5,0.9-0.7
			c-0.3-0.5-0.5-0.9-0.5-1.5C93,41,93,40.2,93,39.1z"/>
		<path class="st0" d="M102.5,36.2c0-0.9-0.3-1.5-0.8-1.9c-0.6-0.4-1.2-0.5-1.8-0.5c-1.6,0-2.9,0.5-3.8,1.5c-0.9,1-1.4,2.2-1.4,3.6
			c0,1.4,0.4,2.5,1.1,3.4c0.8,0.8,1.8,1.3,3.2,1.3c1.4,0,2.3-0.2,2.8-0.5c0.4-0.5,0.5-1.1,0.5-1.9c0-0.3,0-0.4,0-0.4c0,0,0,0-0.1,0
			c-0.6,0.4-1.5,0.6-2.6,0.6c-0.3,0-0.7-0.1-1-0.2c-0.3-0.1-0.5-0.2-0.5-0.4c1.3-0.5,2.4-1.1,3.2-2
			C102.2,37.9,102.5,37.1,102.5,36.2z M99.1,38.1c-0.7,0.6-1.3,0.9-1.8,0.9c-0.1,0-0.1-0.1-0.1-0.3c0-0.8,0.2-1.6,0.7-2.1
			c0.4-0.6,0.9-0.9,1.5-0.9c0.4,0,0.7,0.2,0.7,0.6C100.1,37,99.7,37.6,99.1,38.1z"/>
		<path class="st0" d="M106.7,35.2c0,0-0.1-0.2-0.1-0.5s0-0.7,0.1-1c0-0.1-0.2-0.1-0.5-0.1c-0.3,0-0.7,0.1-1.1,0.2s-0.7,0.3-0.8,0.4
			c-0.1,0.1-0.1,0.5-0.1,1.4l0.1,4.8c0,1.5,0,2.5-0.1,3.2c0,0,0.1,0.1,0.4,0.1c0.3,0,0.7,0,1.1-0.1c0.5-0.1,0.8-0.2,1-0.4
			c0.1-0.1,0.1-0.8,0.1-2.4v-1.6l0-0.8V38l0.1-0.4c0.1-0.3,0.3-0.5,0.6-0.8c0.3-0.3,0.7-0.4,1.1-0.4s0.8,0.3,0.9,0.9
			c0.2,0.6,0.2,1.5,0.2,2.7c0,1.2-0.1,2.4-0.2,3.7l0.7,0.1c0.3,0,0.7,0,1.1-0.1c0.5-0.1,0.7-0.2,0.7-0.3l0.1-2.5c0-1.2,0-2.2-0.1-3
			c0-0.6-0.1-1-0.2-1.4s-0.2-0.7-0.3-1.1c-0.1-0.4-0.3-0.7-0.5-0.9c-0.2-0.2-0.4-0.4-0.7-0.5c-0.3-0.1-0.6-0.2-1.1-0.2
			s-0.9,0.1-1.3,0.4c-0.5,0.2-0.8,0.4-0.9,0.6C107,35,106.9,35.1,106.7,35.2L106.7,35.2z"/>
		<path class="st0" d="M117.3,36.5c0.7-0.5,1.6-0.8,2.7-0.8h0.2c0.2-0.1,0.3-0.5,0.3-1.1c0-0.6,0-1-0.1-1c-0.1,0-0.2,0-0.6,0
			c-1.7,0-3.1,0.5-4.3,1.6c-1.2,1-1.8,2.4-1.8,4.2c0,1.2,0.4,2.3,1.2,3.1c0.8,0.8,2,1.2,3.6,1.2c0.9,0,1.6-0.1,2.1-0.4
			c0.2-0.1,0.2-0.5,0.2-1.2s-0.1-1-0.2-1.1c0,0,0,0-0.1,0c-0.5,0.3-1.1,0.4-1.8,0.4c-0.9,0-1.5-0.2-1.9-0.6
			c-0.4-0.4-0.6-0.9-0.6-1.6s0.1-1.2,0.3-1.6C116.8,37.1,117,36.8,117.3,36.5z"/>
		<path class="st0" d="M126.2,43.6c1.4,0,2.3-0.2,2.8-0.5c0.4-0.5,0.5-1.1,0.5-1.9c0-0.3,0-0.4,0-0.4s0,0-0.1,0
			c-0.6,0.4-1.5,0.6-2.6,0.6c-0.3,0-0.7-0.1-1-0.2c-0.3-0.1-0.5-0.2-0.5-0.4c1.3-0.5,2.4-1.1,3.2-2c0.8-0.9,1.2-1.7,1.2-2.6
			s-0.3-1.5-0.8-1.9c-0.6-0.4-1.2-0.5-1.8-0.5c-1.6,0-2.9,0.5-3.8,1.5c-0.9,1-1.4,2.2-1.4,3.6c0,1.4,0.4,2.5,1.1,3.4
			C123.7,43.1,124.8,43.6,126.2,43.6z M125,36.6c0.4-0.6,0.9-0.9,1.5-0.9c0.4,0,0.7,0.2,0.7,0.6c0,0.7-0.3,1.3-1,1.8
			c-0.7,0.6-1.3,0.9-1.8,0.9c-0.1,0-0.1-0.1-0.1-0.3C124.3,37.9,124.5,37.2,125,36.6z"/>
		<path class="st0" d="M85.1,69c0-3.5-0.2-7.4-0.7-11.9c0.1-0.2,0.3-0.7,0.5-1.3c0.2-0.6,0.3-1,0.3-1.3c0-0.1-0.6-0.1-1.9-0.1
			c-1.2,0-1.9,0.1-2.1,0.2c-0.2,0.2-0.7,1.3-1.4,3.1c-0.7,1.8-1.1,2.9-1.2,3.2c-0.1,0.3-0.2,0.5-0.2,0.5c0,0-0.1,0-0.1-0.1
			c-0.3-0.9-0.8-2.3-1.4-4c-0.6-1.7-1-2.6-1-2.7c-0.1-0.1-0.5-0.1-1.3-0.1c-0.8,0-1.5,0-2.2,0.1c-0.7,0-1,0.1-1.1,0.1l0,0.1
			c0,0.2,0.1,0.5,0.3,1c0.2,0.5,0.4,0.9,0.6,1.1l-0.2,2.2c-0.4,4.4-0.6,7.8-0.6,10.2c0.2,0.1,0.5,0.1,0.8,0.1c1.1,0,1.8-0.2,2.2-0.5
			c-0.1-0.4-0.1-1.8-0.1-4.4c0-2.5,0.1-4.4,0.4-5.7c0-0.1,0-0.1,0.1-0.1c0,0,0.1,0,0.1,0.1c0.1,0.2,0.6,1.4,1.4,3.7
			c0.8,2.3,1.3,3.6,1.3,3.7c0,0,0.1,0.1,0.4,0.1c0.2,0,0.5,0.1,0.9,0.1c0.3,0,0.6-0.1,0.6-0.2l0.4-1.5c0.3-1,0.7-2.1,1.1-3.4
			c0.4-1.2,0.8-2.1,1.1-2.7l0.1-0.1c0.1,0,0.2,1.1,0.3,3.3c0.1,1.8,0.1,3.3,0.1,4.6c0,1.3,0,2.2-0.1,2.8c0,0.1,0.2,0.1,0.6,0.1
			s0.8-0.1,1.4-0.2S85.1,69.2,85.1,69z"/>
		<path class="st0" d="M92.2,59.5c-0.1,0.2-0.1,1.6-0.1,4.2v0.7c0,0.2-0.2,0.5-0.5,0.9c-0.3,0.4-0.7,0.7-1.2,0.7
			c-0.4,0-0.8-0.2-1-0.6c-0.1-0.1-0.1-0.3-0.2-0.5c0-0.2-0.1-0.3-0.1-0.4c0-0.1,0-0.3,0-0.5c0-0.3,0-0.7,0-1.3s0-1.4,0.1-2.5
			c0-0.4,0-0.6,0-0.6c-0.1-0.1-0.3-0.1-0.6-0.1c-0.8,0-1.4,0.1-1.8,0.4c-0.1,0.3-0.2,1.2-0.2,2.7c0,1.5,0,2.5,0,2.9
			c0.2,2.3,1.1,3.5,2.6,3.5c0.5,0,1-0.2,1.5-0.5c0.5-0.3,0.9-0.7,1.3-1.3l0,0l0,0.4c0,0.4,0.1,0.8,0.3,1.2c0.1,0.4,0.3,0.6,0.4,0.6
			c0.4,0,0.9-0.2,1.5-0.5c0.6-0.3,0.9-0.5,0.9-0.7c-0.3-0.4-0.5-1-0.6-1.7c-0.1-0.3-0.1-1-0.1-2.1c0-1.1,0-2.7,0.1-4.7l0-1
			c-0.1-0.1-0.3-0.1-0.6-0.1s-0.7,0.1-1.1,0.2C92.5,59.3,92.3,59.4,92.2,59.5z"/>
		<path class="st0" d="M98.5,67.3c-0.6,0.4-1.4,0.6-2.5,0.6V68c0,0.6,0.2,1.2,0.5,1.6c0.1,0.2,0.2,0.3,0.3,0.3
			c0.6,0,1.4-0.1,2.2-0.4c0.8-0.3,1.6-0.7,2.3-1.3c0.7-0.6,1.1-1.3,1.1-2.1c0-0.5-0.2-1-0.6-1.4c-0.4-0.4-0.7-0.8-1.2-1
			c-1.1-0.6-1.7-1.1-1.7-1.5c0-0.5,0.6-1,1.7-1.3c0.6-0.2,1-0.3,1.3-0.3c0-0.4-0.1-0.8-0.4-1.2c-0.2-0.4-0.4-0.6-0.6-0.6
			c-1.2,0-2.4,0.4-3.4,1.1c-1.1,0.7-1.6,1.5-1.6,2.4c0,0.4,0.2,0.8,0.5,1.2c0.4,0.4,0.7,0.7,1.2,0.9c0.4,0.2,0.8,0.5,1.2,0.8
			c0.4,0.3,0.5,0.6,0.5,0.9C99.4,66.5,99.1,66.9,98.5,67.3z"/>
		<path class="st0" d="M111.4,61.7c0-0.9-0.3-1.5-0.8-1.9c-0.6-0.4-1.2-0.5-1.8-0.5c-1.6,0-2.9,0.5-3.8,1.5c-0.9,1-1.4,2.2-1.4,3.6
			s0.4,2.5,1.1,3.4c0.8,0.8,1.8,1.3,3.2,1.3c1.4,0,2.3-0.2,2.8-0.5c0.4-0.5,0.5-1.1,0.5-1.9c0-0.3,0-0.4,0-0.4c0,0,0,0-0.1,0
			c-0.6,0.4-1.5,0.6-2.6,0.6c-0.3,0-0.7-0.1-1-0.2c-0.3-0.1-0.5-0.2-0.5-0.4c1.3-0.5,2.4-1.1,3.2-2C111,63.5,111.4,62.6,111.4,61.7z
			 M107.9,63.7c-0.7,0.6-1.3,0.9-1.8,0.9c-0.1,0-0.1-0.1-0.1-0.3c0-0.8,0.2-1.6,0.7-2.1c0.4-0.6,1-0.9,1.5-0.9
			c0.4,0,0.7,0.2,0.7,0.6C108.9,62.5,108.6,63.1,107.9,63.7z"/>
		<path class="st0" d="M112.8,62.7c0,1.5,0,2.5,0,2.9c0.2,2.3,1.1,3.5,2.6,3.5c0.5,0,1-0.2,1.5-0.5c0.5-0.3,0.9-0.7,1.3-1.3l0,0
			l0,0.4c0,0.4,0.1,0.8,0.3,1.2c0.1,0.4,0.3,0.6,0.4,0.6c0.4,0,0.9-0.2,1.5-0.5c0.6-0.3,0.9-0.5,0.9-0.7c-0.3-0.4-0.5-1-0.6-1.7
			c-0.1-0.3-0.1-1-0.1-2.1c0-1.1,0-2.7,0.1-4.7l0-1c-0.1-0.1-0.3-0.1-0.6-0.1s-0.7,0.1-1.1,0.2c-0.4,0.1-0.6,0.3-0.7,0.4
			c-0.1,0.2-0.1,1.6-0.1,4.2v0.7c0,0.2-0.2,0.5-0.5,0.9c-0.3,0.4-0.7,0.7-1.2,0.7s-0.8-0.2-1-0.6c-0.1-0.1-0.1-0.3-0.2-0.5
			c0-0.2-0.1-0.3-0.1-0.4c0-0.1,0-0.3,0-0.5c0-0.3,0-0.7,0-1.3s0-1.4,0.1-2.5c0-0.4,0-0.6,0-0.6c-0.1-0.1-0.3-0.1-0.6-0.1
			c-0.8,0-1.4,0.1-1.8,0.4C112.9,60.3,112.8,61.2,112.8,62.7z"/>
		<path class="st0" d="M134,60.2c-0.4-0.8-1-1.1-1.9-1.1c-1,0-1.9,0.6-2.7,1.7c-0.5-0.8-1.2-1.2-2.1-1.2c-0.3,0-0.7,0.1-1.1,0.4
			s-0.7,0.4-0.8,0.6c-0.1,0.1-0.3,0.2-0.3,0.3c-0.1,0.1-0.1,0.1-0.1,0.1c0,0,0-0.2,0-0.5c0-0.3,0-0.8,0.1-1.4c0-0.1-0.2-0.1-0.5-0.1
			c-0.3,0-0.7,0.1-1,0.2c-0.4,0.1-0.6,0.3-0.8,0.4c-0.1,0.1-0.1,0.6-0.1,1.5l0.1,5c0,1.5,0,2.5-0.1,3.1c0,0,0.1,0.1,0.2,0.1
			c1.1,0,1.9-0.2,2.2-0.5c0.1-0.1,0.1-0.8,0.1-2.2l0-2.3v-0.4c0-0.2,0.2-0.6,0.5-1c0.3-0.5,0.7-0.7,1.2-0.7c0.5,0,0.7,0.2,0.8,0.6
			c0.1,0.4,0.2,1.1,0.2,2.1c0,1-0.1,2.1-0.2,3.2l0.7,0.1c0.3,0,0.7,0,1.1-0.1s0.7-0.2,0.7-0.3L130,66c0-1.6,0-2.7-0.1-3.2
			c0,0,0-0.1,0.1-0.3c0.1-0.1,0.2-0.3,0.5-0.4c0.2-0.1,0.5-0.2,0.7-0.2c0.3,0,0.5,0.1,0.7,0.2c0.2,0.2,0.3,0.4,0.4,0.8
			c0.1,0.4,0.1,0.8,0.2,1.1c0,0.4,0,1,0,1.9c0,0.9-0.1,2-0.2,3.4l0.7,0.1c0.3,0,0.7,0,1.1-0.1c0.5-0.1,0.7-0.2,0.7-0.3l0.1-2.5
			c0-1.3,0-2.6-0.1-3.8C134.7,61.9,134.4,61.1,134,60.2z"/>
		<path class="st0" d="M37.8,81.3c-0.3,0-0.6,0.2-0.8,0.5c-0.2,0.3-0.3,0.7-0.3,1.1c0,0.4,0.1,0.8,0.3,1.1c0.1,0.1,0.1,0.2,0.2,0.3
			c0.1,0.1,0.2,0.1,0.2,0.1c0.3,0,0.5-0.1,0.7-0.3c-0.4-0.3-0.5-0.6-0.5-1.1c0.6,0,0.9-0.3,0.9-0.9C38.5,81.6,38.3,81.3,37.8,81.3z"
			/>
		<path class="st0" d="M35.5,81.3c-0.3,0-0.6,0.2-0.8,0.5c-0.2,0.3-0.3,0.7-0.3,1.1c0,0.4,0.1,0.8,0.3,1.1c0.1,0.1,0.1,0.2,0.2,0.3
			c0.1,0.1,0.2,0.1,0.2,0.1c0.3,0,0.5-0.1,0.7-0.3c-0.4-0.3-0.5-0.6-0.5-1.1c0.6,0,0.9-0.3,0.9-0.9C36.2,81.6,36,81.3,35.5,81.3z"/>
		<path class="st0" d="M44.6,89.7c-1.5,0-2.3-0.1-2.5-0.2c0,0-0.1-0.5-0.1-1.3c0-0.8,0-1.2,0-1.2c0.1-0.1,0.4-0.1,1.1-0.2
			c0.6,0,1-0.1,1.3-0.1c0,0,0.1-0.1,0.2-0.2c0.2-0.4,0.3-0.8,0.3-1.2c0,0-0.4,0-1.1,0c-0.7,0-1.3,0-1.7,0l0-0.6c0-1,0-1.5,0.1-1.6
			c0.1-0.1,0.4-0.1,1-0.2c0.6,0,1.1-0.1,1.5-0.1c0.3,0,0.5,0,0.6,0c0,0,0.1-0.1,0.2-0.2s0.2-0.3,0.3-0.6c0.1-0.2,0.1-0.5,0.1-0.7
			c0,0-0.4-0.1-1.2-0.1c-3.3,0-4.9,0.1-5.1,0.2c0,0.1,0.1,0.4,0.3,0.8c0.2,0.4,0.3,0.7,0.4,0.8c0,0,0,0.3,0,0.7l0,1.6
			c-0.5,0-0.8,0-0.8,0c0,0.2,0.1,0.5,0.2,0.8c0.2,0.3,0.3,0.6,0.5,0.7c0,1,0,1.9,0,2.8c0,0.9,0,1.3,0.1,1.4c0.1,0.1,0.9,0.1,2.5,0.1
			c1.6,0,2.5,0,2.6-0.1c0.2-0.2,0.3-0.4,0.5-0.7c0.2-0.3,0.2-0.6,0.2-0.8c0,0-0.1,0-0.3,0C45.6,89.7,45.2,89.7,44.6,89.7z"/>
		<path class="st0" d="M50.4,87.7c0.8-1.2,1.5-2.2,2.2-2.9c0-0.1-0.2-0.3-0.5-0.5c-0.3-0.2-0.6-0.3-0.7-0.3c-0.4,0.3-1,1.1-2,2.4
			c-0.7-1-1.1-1.7-1.2-1.9c-0.2,0.1-0.4,0.2-0.7,0.5c-0.3,0.3-0.4,0.5-0.5,0.7c0,0.1,0.5,0.9,1.4,2.2c-1.2,1.8-1.8,2.8-1.8,3
			c0.1,0.2,0.3,0.4,0.6,0.6c0.3,0.2,0.6,0.4,0.8,0.4c0.2-0.4,0.7-1.3,1.4-2.6c1.1,1.5,1.8,2.2,2.1,2.4c0.2,0,0.4-0.2,0.8-0.5
			c0.3-0.4,0.5-0.6,0.5-0.8C52.2,89.9,51.4,89.1,50.4,87.7z"/>
		<path class="st0" d="M55.2,84.7l0-0.7c0,0-0.2,0-0.4,0s-0.4,0.1-0.7,0.2c-0.3,0.1-0.5,0.2-0.6,0.3c0,0.3,0,0.9,0,1.6l-0.1,6.7
			c0,1,0,1.6,0.1,1.9c0,0,0.1,0,0.3,0c0.2,0,0.4,0,0.7-0.1c0.3-0.1,0.5-0.2,0.6-0.3c-0.1-0.5-0.1-1.4-0.1-2.9v-0.2
			c0.5,0,1.1-0.1,1.7-0.4c0.4-0.2,0.7-0.4,1-0.6c0.3-0.3,0.6-0.6,0.8-1s0.3-0.9,0.3-1.5C59,85.7,57.7,84.7,55.2,84.7z M56.7,89.2
			c-0.4,0.3-1,0.5-1.5,0.5l0-0.7l0-2.1c0-0.2,0-0.4,0-0.5l0-0.2c1.5,0,2.2,0.5,2.2,1.6C57.3,88.4,57.1,88.8,56.7,89.2z"/>
		<path class="st0" d="M61.8,88.6l0-3.5c0-2.1,0-3.4,0.1-3.7c0,0-0.1-0.1-0.4-0.1c-0.2,0-0.5,0.1-0.9,0.2s-0.5,0.2-0.5,0.3
			c0,0,0,0.2,0,0.4c0,0.3,0,0.8,0,1.5L60.2,89c0,0.9,0,1.4,0,1.6c0,0.2,0.1,0.5,0.2,0.7c0.1,0.3,0.2,0.4,0.3,0.4
			c0.3,0,0.6-0.1,1-0.3c0.4-0.2,0.6-0.4,0.6-0.5c-0.2-0.3-0.4-0.7-0.4-1.2C61.8,89.7,61.8,89.3,61.8,88.6z"/>
		<path class="st0" d="M68.7,86.3c-0.1-0.2-0.3-0.3-0.6-0.5c-0.2-0.2-0.4-0.3-0.6-0.3c0-0.2,0-0.3,0-0.5c0-0.1,0-0.2-0.1-0.3
			c0,0-0.3-0.1-0.7-0.1c-1.1,0-2,0.4-2.7,1.1c-0.7,0.7-1,1.6-1,2.5c0,0.9,0.3,1.7,0.8,2.3c0.5,0.6,1.3,0.9,2.2,0.9s1.7-0.3,2.2-1
			c0.6-0.7,0.8-1.5,0.8-2.4c0-0.4-0.1-0.7-0.2-1C68.9,86.7,68.8,86.4,68.7,86.3z M67.1,89.5c-0.3,0.3-0.6,0.4-0.9,0.4
			c-0.3,0-0.6-0.1-0.8-0.2c-0.5-0.3-0.7-0.8-0.7-1.6c0-0.6,0.2-1.1,0.5-1.5c0.3-0.4,0.7-0.5,1.1-0.5c0,0.1,0,0.2,0,0.4s0,0.2,0,0.2
			h0.1c0.2,0,0.4,0.1,0.6,0.2c0.3,0.2,0.4,0.6,0.4,1.2C67.5,88.8,67.4,89.2,67.1,89.5z"/>
		<path class="st0" d="M72.9,85.2c-0.2,0.1-0.3,0.2-0.5,0.3c-0.1,0.1-0.2,0.2-0.3,0.3c0,0.1-0.1,0.1-0.1,0.1c0,0,0,0-0.1,0
			c0,0,0-0.2,0-0.5s0-0.6,0-0.9c0,0-0.1-0.1-0.3-0.1c-0.2,0-0.5,0-0.7,0.1c-0.3,0.1-0.4,0.2-0.5,0.3c0,0-0.1,0.3-0.1,0.9l0,3.3
			c0,1.1,0,1.9-0.1,2.3c0,0,0,0,0.1,0c0.8,0,1.3-0.1,1.6-0.4c0,0,0-0.6,0-1.8V88c0-0.1,0.1-0.3,0.2-0.5c0.4-0.6,0.9-0.8,1.6-0.8
			l0.2,0l0.1-0.1c0.1-0.2,0.2-0.6,0.2-1.2c0-0.3,0-0.5-0.1-0.6C73.7,84.8,73.3,84.9,72.9,85.2z"/>
		<path class="st0" d="M80.1,86.4c0-0.6-0.2-1-0.6-1.3s-0.8-0.4-1.2-0.4c-1.1,0-2,0.3-2.6,1c-0.6,0.7-0.9,1.5-0.9,2.5
			s0.3,1.7,0.8,2.3s1.2,0.8,2.2,0.8c1,0,1.6-0.1,1.9-0.3c0.2-0.3,0.4-0.7,0.4-1.3c0-0.2,0-0.3,0-0.3s0,0,0,0c-0.4,0.3-1,0.4-1.7,0.4
			c-0.2,0-0.5,0-0.7-0.1c-0.2-0.1-0.4-0.2-0.4-0.3c0.9-0.3,1.6-0.8,2.1-1.3C79.8,87.6,80.1,87,80.1,86.4z M77.7,87.7
			c-0.5,0.4-0.8,0.6-1.2,0.6c0,0-0.1-0.1-0.1-0.2c0-0.6,0.1-1.1,0.4-1.5c0.3-0.4,0.6-0.6,1-0.6c0.3,0,0.4,0.1,0.4,0.4
			C78.4,86.9,78.1,87.3,77.7,87.7z"/>
		<path class="st0" d="M85.8,81.6c0,0-0.1-0.1-0.4-0.1c-0.2,0-0.5,0.1-0.9,0.2c-0.3,0.1-0.5,0.2-0.5,0.3c0,0,0,0.1,0,0.3
			c0,0.2,0,0.5,0,1.1c-0.3,0-0.6,0-0.8,0c-0.1,0.1-0.1,0.3-0.1,0.7c0,0.4,0,0.6,0.1,0.6l0.8,0c0,1.2,0,2.4,0,3.7s0,2.1,0,2.3
			c0,0.2,0.1,0.4,0.2,0.6c0.1,0.2,0.2,0.4,0.3,0.5c0.1,0.1,0.1,0.1,0.2,0.1c0.3,0,0.7-0.1,1-0.3c0.4-0.2,0.6-0.4,0.6-0.5
			c-0.3-0.3-0.5-0.7-0.6-1.2c0-0.3,0-0.9,0-1.8c0-0.9,0-2,0-3.5h0.7c0.1,0,0.2-0.1,0.3-0.4c0.1-0.3,0.1-0.5,0.1-0.9c0,0-0.4,0-1.1,0
			C85.8,82.4,85.8,81.8,85.8,81.6z"/>
		<path class="st0" d="M92.6,86.3c-0.1-0.2-0.3-0.3-0.6-0.5c-0.2-0.2-0.4-0.3-0.6-0.3c0-0.2,0-0.3,0-0.5c0-0.1,0-0.2-0.1-0.3
			c0,0-0.3-0.1-0.7-0.1c-1.1,0-2,0.4-2.7,1.1c-0.7,0.7-1,1.6-1,2.5c0,0.9,0.3,1.7,0.8,2.3c0.5,0.6,1.3,0.9,2.2,0.9s1.7-0.3,2.2-1
			c0.6-0.7,0.8-1.5,0.8-2.4c0-0.4-0.1-0.7-0.2-1S92.8,86.4,92.6,86.3z M91.1,89.5c-0.3,0.3-0.6,0.4-0.9,0.4s-0.6-0.1-0.8-0.2
			c-0.5-0.3-0.7-0.8-0.7-1.6c0-0.6,0.2-1.1,0.5-1.5c0.3-0.4,0.7-0.5,1.1-0.5c0,0.1,0,0.2,0,0.4s0,0.2,0,0.2h0.1
			c0.2,0,0.4,0.1,0.6,0.2c0.3,0.2,0.4,0.6,0.4,1.2C91.5,88.8,91.4,89.2,91.1,89.5z"/>
		<path class="st0" d="M99.6,85.6c-0.1-0.1-0.3-0.1-0.6-0.1h-0.2l0-0.2c0-0.2,0-0.4,0-0.5c0,0-0.2-0.1-0.5-0.1
			c-1.4,0-2.4,0.4-3.2,1.1c-0.7,0.7-1.1,1.7-1.1,2.9c0,0.6,0.2,1.2,0.6,1.7c0.4,0.5,0.9,0.8,1.5,0.8c0.9,0,1.5-0.3,1.9-0.9l0,0
			c0,0,0,0,0,0.1c0,0.7-0.1,1.2-0.2,1.7c-0.1,0.5-0.3,0.9-0.5,1.1c-0.2,0.2-0.4,0.5-0.7,0.6c-0.3,0.2-0.5,0.2-0.7,0.3
			c-0.2,0-0.4,0.1-0.6,0.1h-0.3c0,0.2,0,0.4,0.1,0.7c0.1,0.3,0.2,0.4,0.2,0.6c0.1,0.1,0.1,0.2,0.2,0.2c0.6,0,1.2-0.2,1.8-0.5
			c0.4-0.2,0.7-0.5,1-0.8c0.3-0.3,0.5-0.8,0.7-1.4c0.2-0.6,0.3-1.2,0.3-2l0-3.4V85.6z M98,88.4c0,0.2-0.1,0.4-0.3,0.6
			c-0.2,0.3-0.5,0.4-0.9,0.4c-0.3,0-0.6-0.1-0.8-0.3c-0.2-0.2-0.3-0.5-0.3-0.8c0-0.6,0.2-1.1,0.5-1.5c0.4-0.4,0.8-0.6,1.5-0.6l0.3,0
			C98,86.6,98,87.3,98,88.4z"/>
		<path class="st0" d="M105.9,86.4c0-0.6-0.2-1-0.6-1.3c-0.4-0.2-0.8-0.4-1.2-0.4c-1.1,0-2,0.3-2.6,1c-0.6,0.7-0.9,1.5-0.9,2.5
			s0.3,1.7,0.8,2.3s1.2,0.8,2.2,0.8s1.6-0.1,1.9-0.3c0.2-0.3,0.4-0.7,0.4-1.3c0-0.2,0-0.3,0-0.3s0,0,0,0c-0.4,0.3-1,0.4-1.7,0.4
			c-0.2,0-0.5,0-0.7-0.1c-0.2-0.1-0.4-0.2-0.4-0.3c0.9-0.3,1.6-0.8,2.1-1.3C105.7,87.6,105.9,87,105.9,86.4z M103.6,87.7
			c-0.5,0.4-0.8,0.6-1.2,0.6c0,0-0.1-0.1-0.1-0.2c0-0.6,0.1-1.1,0.4-1.5c0.3-0.4,0.6-0.6,1-0.6c0.3,0,0.4,0.1,0.4,0.4
			C104.3,86.9,104,87.3,103.6,87.7z"/>
		<path class="st0" d="M108.7,81.6c0,0-0.1-0.1-0.4-0.1c-0.2,0-0.5,0.1-0.9,0.2c-0.3,0.1-0.5,0.2-0.5,0.3c0,0,0,0.1,0,0.3
			c0,0.2,0,0.5,0,1.1c-0.3,0-0.6,0-0.8,0c-0.1,0.1-0.1,0.3-0.1,0.7c0,0.4,0,0.6,0.1,0.6l0.8,0c0,1.2,0,2.4,0,3.7s0,2.1,0,2.3
			c0,0.2,0.1,0.4,0.2,0.6c0.1,0.2,0.2,0.4,0.3,0.5c0.1,0.1,0.1,0.1,0.2,0.1c0.3,0,0.7-0.1,1-0.3c0.4-0.2,0.6-0.4,0.6-0.5
			c-0.3-0.3-0.5-0.7-0.6-1.2c0-0.3,0-0.9,0-1.8c0-0.9,0-2,0-3.5h0.7c0.1,0,0.2-0.1,0.3-0.4c0.1-0.3,0.1-0.5,0.1-0.9c0,0-0.4,0-1.1,0
			C108.7,82.4,108.7,81.8,108.7,81.6z"/>
		<path class="st0" d="M115.3,86.6c0-0.2-0.1-0.5-0.2-0.7c-0.1-0.3-0.2-0.4-0.3-0.6c-0.1-0.1-0.3-0.2-0.5-0.3
			c-0.2-0.1-0.4-0.1-0.7-0.1c-0.3,0-0.6,0.1-0.9,0.3c-0.3,0.2-0.5,0.3-0.6,0.4l-0.3,0.3c0,0,0,0,0-0.1v-0.1c0-0.4,0-1.1,0-2.3
			c0-1.2,0-1.8,0.1-1.9c0,0-0.1-0.1-0.4-0.1c-0.2,0-0.5,0.1-0.7,0.2c-0.3,0.1-0.4,0.2-0.6,0.3c0,0-0.1,0.5-0.1,1.5l0,5
			c0,1.7,0,2.7-0.1,3.1c0,0,0,0,0.1,0c0.8,0,1.3-0.1,1.6-0.4c0,0,0.1-0.4,0.1-1.2s0-1.5,0-2.1l0.1-0.3c0.1-0.2,0.2-0.4,0.4-0.5
			c0.2-0.2,0.4-0.3,0.6-0.3c0.4,0,0.6,0.2,0.7,0.6c0.1,0.4,0.2,1,0.2,1.8s0,1.6-0.1,2.5l0.5,0.1c0.2,0,0.4,0,0.7-0.1
			c0.3-0.1,0.5-0.1,0.5-0.2l0.1-1.9c0-0.8,0-1.4,0-1.9C115.4,87.1,115.4,86.8,115.3,86.6z"/>
		<path class="st0" d="M121.8,86.4c0-0.6-0.2-1-0.6-1.3c-0.4-0.2-0.8-0.4-1.2-0.4c-1.1,0-2,0.3-2.6,1c-0.6,0.7-0.9,1.5-0.9,2.5
			s0.3,1.7,0.8,2.3s1.2,0.8,2.2,0.8c1,0,1.6-0.1,1.9-0.3c0.2-0.3,0.4-0.7,0.4-1.3c0-0.2,0-0.3,0-0.3c0,0,0,0,0,0
			c-0.4,0.3-1,0.4-1.7,0.4c-0.2,0-0.5,0-0.7-0.1c-0.2-0.1-0.4-0.2-0.4-0.3c0.9-0.3,1.6-0.8,2.1-1.3C121.5,87.6,121.8,87,121.8,86.4z
			 M119.4,87.7c-0.5,0.4-0.8,0.6-1.2,0.6c0,0-0.1-0.1-0.1-0.2c0-0.6,0.1-1.1,0.4-1.5c0.3-0.4,0.6-0.6,1-0.6c0.3,0,0.4,0.1,0.4,0.4
			C120.1,86.9,119.9,87.3,119.4,87.7z"/>
		<path class="st0" d="M125.4,85.2c-0.2,0.1-0.3,0.2-0.5,0.3c-0.1,0.1-0.2,0.2-0.3,0.3c0,0.1-0.1,0.1-0.1,0.1c0,0,0,0-0.1,0
			c0,0,0-0.2,0-0.5s0-0.6,0-0.9c0,0-0.1-0.1-0.3-0.1c-0.2,0-0.5,0-0.7,0.1c-0.3,0.1-0.4,0.2-0.5,0.3c0,0-0.1,0.3-0.1,0.9l0,3.3
			c0,1.1,0,1.9-0.1,2.3c0,0,0,0,0.1,0c0.8,0,1.3-0.1,1.6-0.4c0,0,0-0.6,0-1.8V88c0-0.1,0.1-0.3,0.2-0.5c0.4-0.6,0.9-0.8,1.6-0.8
			l0.2,0l0.1-0.1c0.1-0.2,0.2-0.6,0.2-1.2c0-0.3,0-0.5-0.1-0.6C126.3,84.8,125.8,84.9,125.4,85.2z"/>
		<path class="st0" d="M130.5,81.3c-0.3,0-0.5,0.1-0.6,0.2c-0.2,0.2-0.3,0.4-0.3,0.6c0,0.6,0.3,0.9,0.8,0.9c0,0.4-0.3,0.7-0.7,1.1
			c0,0.1,0.1,0.1,0.2,0.2c0.1,0.1,0.2,0.1,0.3,0.1c0.1,0,0.2-0.1,0.4-0.2c0.2-0.1,0.3-0.4,0.5-0.7s0.2-0.7,0.2-1
			c0-0.3-0.1-0.6-0.2-0.8C131,81.4,130.8,81.3,130.5,81.3z"/>
		<path class="st0" d="M128.2,81.3c-0.3,0-0.5,0.1-0.6,0.2c-0.2,0.2-0.3,0.4-0.3,0.6c0,0.6,0.3,0.9,0.8,0.9c0,0.4-0.3,0.7-0.7,1.1
			c0,0.1,0.1,0.1,0.2,0.2c0.1,0.1,0.2,0.1,0.3,0.1c0.1,0,0.2-0.1,0.4-0.2c0.2-0.1,0.3-0.4,0.5-0.7s0.2-0.7,0.2-1
			c0-0.3-0.1-0.6-0.2-0.8C128.7,81.4,128.5,81.3,128.2,81.3z"/>
	</g>
	<g>
		<path class="st1" d="M59,38.6c0-14-11.4-25.4-25.4-25.4c-14,0-25.4,11.3-25.4,25.3c0,10.9,6.9,20.3,16.5,23.9
			c0.5,0.2,1-0.1,1.1-0.5l4.6-14.1c0.1-0.4-0.1-0.9-0.5-1.1c-3.1-1.4-5.3-4.5-5.3-8.2c0-4.9,4-8.8,8.9-8.8c4.9,0,8.9,4,8.9,8.9
			c0,3.6-2.2,6.8-5.3,8.1c-0.4,0.2-0.6,0.6-0.5,1.1l4.6,14.1c0.2,0.5,0.7,0.7,1.1,0.5C52.1,58.8,59,49.5,59,38.6z"/>
		<g>
			<path class="st2" d="M42.9,63.5c-0.2,0.1-0.7,0.1-0.8,0.1c-2.2,6-5.2,9.6-8.5,9.6c-6.8,0-12.4-15.9-12.4-35.4S26.8,2.4,33.6,2.4
				c3.6,0,6.8,4.3,9,11.2c0.2,0.1,1.2,0.4,1.2,0.5C41.5,5.5,37.8,0,33.6,0c-7.3,0-13.2,16.9-13.2,37.8s5.9,37.8,13.2,37.8
				c3.9,0,7.3-4.7,9.7-12.3C43.2,63.4,43,63.5,42.9,63.5z"/>
			<circle class="st3" cx="26.2" cy="8.1" r="2.4"/>
		</g>
		<g>
			<path class="st2" d="M7.5,33.5c-4.1-4.9-5.6-9.3-4-12.1c3.4-5.9,19.9-2.9,36.9,6.8s28,22.4,24.6,28.4c-1.8,3.1-7.1,3.8-14.2,2.3
				C50.7,59,50.7,59,50.6,59c-0.1,0.1-0.2,0.2-0.3,0.3c-0.1,0.1-0.2,0.2-0.3,0.3c-0.1,0.1-0.1,0.1-0.2,0.1
				c8.6,2.1,15.2,1.7,17.2-1.9c3.6-6.3-8.1-19.9-26.2-30.3S5.1,13.9,1.4,20.2c-1.9,3.3,0.5,8.7,5.9,14.5"/>
			<circle class="st3" cx="63.7" cy="47.3" r="2.4"/>
		</g>
		<g>
			<path class="st2" d="M51.6,18.8c6.3-1.1,10.9-0.2,12.5,2.6c3.4,5.9-7.5,18.7-24.4,28.5S6.2,62.9,2.8,57c-1.8-3.1,0-7.6,4.8-13
				c0-0.1-0.2-1.2-0.2-1.3c-6.2,6.4-8.7,11.8-6.6,15.4c3.7,6.3,21.3,2.9,39.3-7.5s29.7-24.1,26.1-30.4c-1.9-3.3-7.8-3.9-15.5-2.2"/>
			<circle class="st3" cx="11.5" cy="60.5" r="2.4"/>
		</g>
	</g>
</g>
</svg>
