<svg id="Layer_1" data-name="Layer 1" xmlns="http://www.w3.org/2000/svg" width="160.0168" height="95.5191" viewBox="0 0 160.0168 95.5191"><defs><style>.cls-1{fill:#bbbdbf;}.cls-2{fill:#3fa652;stroke:#21552a;stroke-width:2.4135px;}.cls-2,.cls-3,.cls-4{stroke-miterlimit:10;}.cls-3,.cls-4{fill:#fff;stroke:#fff;}.cls-3{stroke-width:0.0335px;}.cls-4{stroke-width:1.1097px;}</style></defs><title>nav_logo3</title><path class="cls-1" d="M77.385,18.1911a7.3858,7.3858,0,0,0,2.7459-.5323,8.1735,8.1735,0,0,0,2-1.0536q.66-.5216.6608-.713a3.5037,3.5037,0,0,0-.5318-1.043,3.4448,3.4448,0,0,0-.5213-.7134c-.1785-.1771-.2951-.2659-.3516-.2659a5.5974,5.5974,0,0,1-3.8962,1.8518,3.7,3.7,0,0,1-1.7335-.383,2.8074,2.8074,0,0,1-1.1185-1.0006,4.9158,4.9158,0,0,1-.7227-2.6394,6.6758,6.6758,0,0,1,1.297-4.353A3.6635,3.6635,0,0,1,78.0247,5.76a1.1054,1.1054,0,0,1,.9577.3835,2.3963,2.3963,0,0,1,.2757,1.3407v.1276a4.4822,4.4822,0,0,0,1.1609-.2341,3.23,3.23,0,0,0,.8835-.3406q.0211-.0206.159-1.33a22.5251,22.5251,0,0,0,.1378-2.3311c0-.0283-.1767-.0848-.5318-.17a5.2214,5.2214,0,0,0-1.2122-.1276,10.2885,10.2885,0,0,0-3.6188.5959,7.1421,7.1421,0,0,0-2.5339,1.5112,8.085,8.085,0,0,0-1.5532,2.1288,9.6047,9.6047,0,0,0-1.0655,4.47,6.6769,6.6769,0,0,0,1.5974,4.619A5.9757,5.9757,0,0,0,77.385,18.1911Z"/><path class="cls-1" d="M88.2309,18.0846a4.0832,4.0832,0,0,0,3.32-1.4794,5.3182,5.3182,0,0,0,1.2246-3.5018,4.7608,4.7608,0,0,0-.2351-1.543,3.337,3.337,0,0,0-.553-1.0752,4.7226,4.7226,0,0,0-.82-.7554,1.5158,1.5158,0,0,0-.8181-.3724,4.323,4.323,0,0,0,.0636-.7024.6259.6259,0,0,0-.0866-.4046A3.4646,3.4646,0,0,0,89.22,8.1227,5.16,5.16,0,0,0,85.2287,9.73,5.2827,5.2827,0,0,0,83.75,13.4122a4.79,4.79,0,0,0,1.1927,3.3737A4.2389,4.2389,0,0,0,88.2309,18.0846ZM86.9321,11.188A2.2393,2.2393,0,0,1,88.5613,10.4a2.1922,2.1922,0,0,0-.0636.5318.9358.9358,0,0,0,.0424.3623h.17a1.75,1.75,0,0,1,.9577.3189,1.8537,1.8537,0,0,1,.6591,1.703,2.7385,2.7385,0,0,1-.6273,1.9582,1.8445,1.8445,0,0,1-1.3411.66,2.0816,2.0816,0,0,1-1.1168-.2553A2.4564,2.4564,0,0,1,86.1758,13.38,3.0376,3.0376,0,0,1,86.9321,11.188Z"/><path class="cls-1" d="M94.6468,18.0846a3.3934,3.3934,0,0,0,2.2353-.5111,11.8213,11.8213,0,0,0,.0865-2.1924l-.0229-2.256V12.678a2.1581,2.1581,0,0,1,.4682-1.0429,1.37,1.37,0,0,1,1.15-.6812.7731.7731,0,0,1,.8411.6065,9.4886,9.4886,0,0,1,.1591,2.1072,29.4168,29.4168,0,0,1-.1909,3.2247l.68.1065a6.2685,6.2685,0,0,0,1.1079-.1277c.4541-.0852.68-.1842.68-.2977l.0848-1.6818q0-2.4689-.0636-3.1505a.7692.7692,0,0,1,.1378-.2765,1.7422,1.7422,0,0,1,.4577-.4365,1.2351,1.2351,0,0,1,.7245-.2235.9559.9559,0,0,1,.6714.2447,1.5473,1.5473,0,0,1,.3923.8089,6.71,6.71,0,0,1,.1608,1.1282q.0318.5646.0318,1.8628a32.0024,32.0024,0,0,1-.235,3.4055l.682.1064a6.1383,6.1383,0,0,0,1.1274-.1382c.4682-.0924.7032-.1882.7032-.2872l.0849-2.4905q0-1.9581-.1273-3.7889a7.3008,7.3008,0,0,0-.7032-2.5118,1.9681,1.9681,0,0,0-1.8942-1.1282,3.3689,3.3689,0,0,0-2.6823,1.7029,2.2337,2.2337,0,0,0-3.2036-.8835,5.4713,5.4713,0,0,0-.8305.5535c-.1484.1352-.2509.2341-.3074.2982s-.1008.0954-.129.0954-.0424-.163-.0424-.4894.0282-.8014.0865-1.426c0-.0565-.1643-.0853-.4912-.0853a2.8784,2.8784,0,0,0-1.0213.2024,2.494,2.494,0,0,0-.7881.436,4.5793,4.5793,0,0,0-.106,1.4688l.0636,5.0023a22.43,22.43,0,0,1-.1484,3.1289C94.4772,18.0634,94.5337,18.0846,94.6468,18.0846Z"/><path class="cls-1" d="M108.887,18.0846a3.3934,3.3934,0,0,0,2.2353-.5111,11.8213,11.8213,0,0,0,.0865-2.1924l-.0229-2.256V12.678a2.1581,2.1581,0,0,1,.4682-1.0429,1.37,1.37,0,0,1,1.15-.6812.7731.7731,0,0,1,.8411.6065,9.4886,9.4886,0,0,1,.1591,2.1072,29.4168,29.4168,0,0,1-.1909,3.2247l.68.1065a6.2685,6.2685,0,0,0,1.1079-.1277c.4541-.0852.68-.1842.68-.2977l.0848-1.6818q0-2.4689-.0636-3.1505a.7692.7692,0,0,1,.1378-.2765,1.7438,1.7438,0,0,1,.4577-.4365,1.2351,1.2351,0,0,1,.7245-.2235.9558.9558,0,0,1,.6714.2447,1.5473,1.5473,0,0,1,.3923.8089,6.71,6.71,0,0,1,.1608,1.1282q.0318.5646.0318,1.8628a32.0024,32.0024,0,0,1-.235,3.4055l.682.1064a6.1383,6.1383,0,0,0,1.1274-.1382c.4682-.0924.7033-.1882.7033-.2872l.0848-2.4905q0-1.9581-.1273-3.7889a7.2985,7.2985,0,0,0-.7032-2.5118,1.9681,1.9681,0,0,0-1.8942-1.1282,3.3689,3.3689,0,0,0-2.6823,1.7029,2.2337,2.2337,0,0,0-3.2036-.8835,5.4713,5.4713,0,0,0-.8305.5535c-.1484.1352-.2509.2341-.3074.2982s-.1008.0954-.129.0954-.0424-.163-.0424-.4894.0282-.8014.0865-1.426c0-.0565-.1643-.0853-.4912-.0853a2.8784,2.8784,0,0,0-1.0213.2024,2.494,2.494,0,0,0-.7881.436,4.5793,4.5793,0,0,0-.106,1.4688l.0636,5.0023a22.43,22.43,0,0,1-.1484,3.1289C108.7174,18.0634,108.7739,18.0846,108.887,18.0846Z"/><path class="cls-1" d="M125.3413,17.9569a2.9513,2.9513,0,0,0,1.5231-.4682,3.9455,3.9455,0,0,0,1.2864-1.2559l.0212.0424.023.447a4.9735,4.9735,0,0,0,.2544,1.2347c.1414.4254.27.6384.3834.6384a3.2925,3.2925,0,0,0,1.49-.4683q.8721-.4685.8729-.6812a4.0564,4.0564,0,0,1-.5743-1.7029,15.3058,15.3058,0,0,1-.0848-2.1071q0-1.6606.1273-4.7042l.0424-1.0006a1.27,1.27,0,0,0-.6379-.0852,3.1648,3.1648,0,0,0-1.1185.2129,1.34,1.34,0,0,0-.67.4046,30.2752,30.2752,0,0,0-.129,4.1931v.724a1.8238,1.8238,0,0,1-.5.9471,1.4966,1.4966,0,0,1-1.1909.6706,1.0452,1.0452,0,0,1-.99-.6176,1.8139,1.8139,0,0,1-.1608-.5106c-.0354-.1984-.0566-.3371-.0637-.4153s-.0176-.2553-.0318-.5318-.0212-.7059-.0212-1.2877.0354-1.4123.1061-2.4906q.0212-.5533.0212-.5747a.992.992,0,0,0-.5955-.1065,2.85,2.85,0,0,0-1.7882.4471,10.3221,10.3221,0,0,0-.1909,2.7247q0,2.2986.0425,2.8519Q123.106,17.9571,125.3413,17.9569Z"/><path class="cls-1" d="M140.4332,11.1028a9.2315,9.2315,0,0,0-.3093-1.1071,2.7184,2.7184,0,0,0-.4788-.9153,2.2484,2.2484,0,0,0-1.7776-.766,2.7791,2.7791,0,0,0-1.3182.3724,3.979,3.979,0,0,0-.9047.596,3.5167,3.5167,0,0,0-.32.3724l-.0636.0428q-.0636,0-.0636-.5111a8.2638,8.2638,0,0,1,.0636-1.0218c0-.0706-.1679-.1064-.5-.1064a3.5975,3.5975,0,0,0-1.0761.1811,2.0223,2.0223,0,0,0-.8093.4152,4.3387,4.3387,0,0,0-.106,1.426l.0636,4.7894a23.2179,23.2179,0,0,1-.1484,3.15c0,.0429.1449.0641.4364.0641a5.4605,5.4605,0,0,0,1.1168-.1489,1.9658,1.9658,0,0,0,.9595-.4258,13.4775,13.4775,0,0,0,.0848-2.3629V13.5293l-.0212-.7876v-.2978l.1484-.3622a1.84,1.84,0,0,1,.5637-.766,1.6671,1.6671,0,0,1,1.14-.3835c.4682,0,.7792.3018.9365.9048a11.643,11.643,0,0,1,.2332,2.7035,33.7549,33.7549,0,0,1-.212,3.7142l.7015.1064a6.1372,6.1372,0,0,0,1.1291-.1382c.4683-.0924.7015-.1882.7015-.2872l.0636-2.4905q0-1.809-.0636-2.98A11.0586,11.0586,0,0,0,140.4332,11.1028Z"/><path class="cls-1" d="M145.1369,13.5717l.0424-3.4483.0212-1.0854c-.0707-.0852-.2686-.1276-.5955-.1276a2.8889,2.8889,0,0,0-1.7246.383,19.7674,19.7674,0,0,0-.1484,3.5971q0,3.3.053,3.8742a6.1457,6.1457,0,0,0,.2456,1.2134q.191.6388.3817.6384a3.3007,3.3007,0,0,0,1.4914-.4683q.872-.4685.8729-.6812a3.369,3.369,0,0,1-.5443-1.4577A22.186,22.186,0,0,1,145.1369,13.5717Z"/><path class="cls-1" d="M143.87,7.6969a1.5467,1.5467,0,0,0,1.0655-.4365,1.3778,1.3778,0,0,0,.4788-1.0535,1.4032,1.4032,0,0,0-.3622-1.0006,1.2439,1.2439,0,0,0-.9471-.383,1.4844,1.4844,0,0,0-1.0532.4471,1.42,1.42,0,0,0-.4682,1.0641,1.387,1.387,0,0,0,.35.99A1.2272,1.2272,0,0,0,143.87,7.6969Z"/><path class="cls-1" d="M149.9679,3.5886c0-.0565-.1838-.0848-.5531-.0848a3.7435,3.7435,0,0,0-1.2881.2765q-.7343.277-.7333.49a4.2876,4.2876,0,0,0,.0636.4258,12.0447,12.0447,0,0,1,.0636,1.5965q-.66.0213-1.1274.0424-.1935.171-.1926.99a2.0329,2.0329,0,0,0,.1061.9259l1.1927-.0212q-.0636,2.5543-.0636,5.4278t.053,3.3418a3.5169,3.5169,0,0,0,.2562.9581,2.7707,2.7707,0,0,0,.3817.7024c.1219.1418.2032.2129.2456.2129a3.2417,3.2417,0,0,0,1.5426-.447q.819-.4473.82-.6812a2.8466,2.8466,0,0,1-.8729-1.8094q-.0636-.6592-.0636-2.6288t.0424-5.1195h1c.1289,0,.2632-.1877.4046-.5636a3.6419,3.6419,0,0,0,.2138-1.2882,7.5782,7.5782,0,0,0-1.5974-.0636Q149.9256,4.0783,149.9679,3.5886Z"/><path class="cls-1" d="M160.0168,8.1439c0-.0424-.1432-.064-.4259-.064a5.5742,5.5742,0,0,0-1.1185.1493,1.9562,1.9562,0,0,0-.9683.4258,5.6518,5.6518,0,0,0-.106,1.65q0,1.5433.0424,2.8842l-.106.4046a1.8951,1.8951,0,0,1-.5213.82,1.5144,1.5144,0,0,1-1.1185.4148q-.7024,0-1-.9577a8.1893,8.1893,0,0,1-.2986-2.4053,32.7973,32.7973,0,0,1,.235-3.5548l-.6821-.1065a5.0206,5.0206,0,0,0-1.0743.1489c-.4329.1-.6485.1992-.6485.2982l-.0654.2982a18.0513,18.0513,0,0,0-.17,2.7459q0,1.2132.0848,2.3413a7.704,7.704,0,0,0,.15,1.277,9.1751,9.1751,0,0,0,.2968,1.0112,2.327,2.327,0,0,0,.4789.8407,2.25,2.25,0,0,0,.7245.49,3.0209,3.0209,0,0,0,1.1909.1912,2.6384,2.6384,0,0,0,1.502-.5106,3.8681,3.8681,0,0,0,.5212-.4365,3.1158,3.1158,0,0,0,.3092-.3406q.0638-.096.1061-.1594c.0282-.0429.0565-.0641.0848-.0641s.0424.0424.0424.1277l.0212.6175a6.5685,6.5685,0,0,1-.6591,3.3843,5.6,5.6,0,0,1-.64.8835,2.9679,2.9679,0,0,1-1.1274.66,4.5192,4.5192,0,0,1-1.6186.3084,3.3525,3.3525,0,0,0,.1714,1.0111,4.1007,4.1007,0,0,0,.3605.8623c.129.2125.2138.319.2562.319a5.4021,5.4021,0,0,0,2.6823-.7448,5.4677,5.4677,0,0,0,1.4366-1.1494,5.7063,5.7063,0,0,0,1.0637-2.0012,9.2473,9.2473,0,0,0,.4365-2.9583l-.0212-5.6624A23.4047,23.4047,0,0,1,160.0168,8.1439Z"/><path class="cls-1" d="M73.5118,43.7767a8.5567,8.5567,0,0,0,5.1826-1.5006,4.4132,4.4132,0,0,0,2.0532-3.6506,3.3492,3.3492,0,0,0-.6485-2.0754,4.2906,4.2906,0,0,0-1.5743-1.3089q-.9278-.4472-1.8413-.7982a8.6809,8.6809,0,0,1-1.5655-.7664,1.1621,1.1621,0,0,1-.6485-.9578,1.1991,1.1991,0,0,1,.4258-.9259,2.6215,2.6215,0,0,1,1.0956-.5641,10.3309,10.3309,0,0,1,1.2987-.2663,8.1613,8.1613,0,0,1,1.0638-.0849,6.3728,6.3728,0,0,1,.7774.0424,2.1531,2.1531,0,0,0,.3835-.9577,5.7125,5.7125,0,0,0,.1484-.9475,1.312,1.312,0,0,0-.0212-.3084A2.0651,2.0651,0,0,0,78.705,28.6a9.4616,9.4616,0,0,0-5.3964,1.2877,3.5588,3.5588,0,0,0-1.8624,2.8417,2.683,2.683,0,0,0,.6608,1.809,4.6807,4.6807,0,0,0,1.5956,1.2029q.9357.4367,1.8836.83a6.5987,6.5987,0,0,1,1.608.9259,1.5578,1.5578,0,0,1,.6591,1.2347,2.2334,2.2334,0,0,1-1.0107,1.8094,3.8206,3.8206,0,0,1-2.3731.7665,1.1529,1.1529,0,0,1-.8093-.213q-.5327-.5321-.5318-3.044a3.4956,3.4956,0,0,0-1.32.2769q-.6812.2763-.7457.4683a20.1706,20.1706,0,0,0-.0848,2.5224,6.2828,6.2828,0,0,0,.1926,2.2882A11.7683,11.7683,0,0,0,73.5118,43.7767Z"/><path class="cls-1" d="M82.9829,42.4572a4.7476,4.7476,0,0,0,3.5976,1.2342,4.277,4.277,0,0,0,2.0868-.4042q.2333-.1914.2332-1.1706a2.1419,2.1419,0,0,0-.17-1.1494.3708.3708,0,0,0-.106.0424,3.91,3.91,0,0,1-1.767.383,2.4,2.4,0,0,1-1.8518-.6277A2.2576,2.2576,0,0,1,84.43,39.179a3.8469,3.8469,0,0,1,.32-1.6389,2.6034,2.6034,0,0,1,.7456-1.0006,4.3139,4.3139,0,0,1,2.6594-.7664h.15q.2544-.1915.2544-1.1066t-.1272-1.0217a3.9787,3.9787,0,0,0-.5743-.0217,6.2484,6.2484,0,0,0-4.29,1.5541,5.2938,5.2938,0,0,0-1.7547,4.1719A4.3347,4.3347,0,0,0,82.9829,42.4572Z"/><path class="cls-1" d="M90.9237,30.8136a1.42,1.42,0,0,0-.4682,1.0642,1.3866,1.3866,0,0,0,.35.99,1.2272,1.2272,0,0,0,.9365.3724,1.5466,1.5466,0,0,0,1.0655-.4364,1.3782,1.3782,0,0,0,.4788-1.0536A1.4032,1.4032,0,0,0,92.924,30.75a1.2439,1.2439,0,0,0-.9471-.383A1.4844,1.4844,0,0,0,90.9237,30.8136Z"/><path class="cls-1" d="M93.0088,39.1149l.0424-3.4483.0212-1.0853c-.0707-.0853-.2686-.1277-.5955-.1277a2.8891,2.8891,0,0,0-1.7245.383,19.7515,19.7515,0,0,0-.1485,3.5971q0,3.3.053,3.8742a6.1481,6.1481,0,0,0,.2456,1.2135q.1909.6387.3817.6383a3.2991,3.2991,0,0,0,1.4914-.4683q.8719-.4685.8729-.6811a3.3694,3.3694,0,0,1-.5443-1.4578A22.186,22.186,0,0,1,93.0088,39.1149Z"/><path class="cls-1" d="M102.5453,36.1671a2.0316,2.0316,0,0,0-.8411-1.8628,3.38,3.38,0,0,0-1.8412-.5319,4.78,4.78,0,0,0-3.7991,1.543,5.3476,5.3476,0,0,0-1.3517,3.64A4.8248,4.8248,0,0,0,95.84,42.3079a4.1256,4.1256,0,0,0,3.2354,1.2559,5.558,5.558,0,0,0,2.8307-.4895,3.0431,3.0431,0,0,0,.5337-1.9158c0-.2695-.016-.4042-.0442-.4042a.086.086,0,0,0-.0636.0212,4.8632,4.8632,0,0,1-2.5533.5747,3.5352,3.5352,0,0,1-1.0337-.16c-.3464-.1065-.5213-.2452-.5213-.4152a7.2835,7.2835,0,0,0,3.1612-1.98A3.9545,3.9545,0,0,0,102.5453,36.1671Zm-3.4916,1.98a3.0309,3.0309,0,0,1-1.767.8835q-.0847,0-.0848-.2982a3.51,3.51,0,0,1,.6608-2.15,1.8857,1.8857,0,0,1,1.532-.8936q.66,0,.6591.6171A2.4444,2.4444,0,0,1,99.0537,38.1466Z"/><path class="cls-1" d="M106.7171,35.2412q-.0636,0-.0636-.5111a8.2622,8.2622,0,0,1,.0636-1.0217c0-.0707-.1678-.1065-.5-.1065a3.5975,3.5975,0,0,0-1.0761.1811,2.02,2.02,0,0,0-.8093.4153,4.3373,4.3373,0,0,0-.106,1.4259l.0636,4.7895a23.22,23.22,0,0,1-.1484,3.15c0,.0428.1449.064.4364.064a5.4672,5.4672,0,0,0,1.1168-.1488,1.9658,1.9658,0,0,0,.9594-.4259,13.4643,13.4643,0,0,0,.0848-2.3629V39.0725l-.0212-.7876v-.2978l.1485-.3622a1.8414,1.8414,0,0,1,.5636-.766,1.6675,1.6675,0,0,1,1.14-.3834c.4682,0,.7792.3017.9365.9047a11.6435,11.6435,0,0,1,.2332,2.7035,33.78,33.78,0,0,1-.212,3.7142l.7015.1065a6.14,6.14,0,0,0,1.1291-.1383q.7023-.1384.7015-.2871l.0636-2.4906q0-1.809-.0636-2.98a11.0362,11.0362,0,0,0-.17-1.3623,9.205,9.205,0,0,0-.3092-1.107,2.7164,2.7164,0,0,0-.4788-.9153,2.2484,2.2484,0,0,0-1.7776-.766,2.7779,2.7779,0,0,0-1.3182.3724,3.9714,3.9714,0,0,0-.9047.5959,3.5149,3.5149,0,0,0-.32.3724Z"/><path class="cls-1" d="M117.2961,36.54a4.3139,4.3139,0,0,1,2.6594-.7664h.15q.2544-.1915.2544-1.1066t-.1272-1.0217a3.9787,3.9787,0,0,0-.5743-.0217,6.2489,6.2489,0,0,0-4.29,1.5541,5.2941,5.2941,0,0,0-1.7546,4.1719,4.3347,4.3347,0,0,0,1.17,3.1081,4.7476,4.7476,0,0,0,3.5976,1.2342,4.277,4.277,0,0,0,2.0868-.4042q.2333-.1914.2332-1.1706a2.1419,2.1419,0,0,0-.17-1.1494.3708.3708,0,0,0-.106.0424,3.91,3.91,0,0,1-1.767.383,2.4,2.4,0,0,1-1.8518-.6277,2.2576,2.2576,0,0,1-.5761-1.5859,3.8469,3.8469,0,0,1,.32-1.6389A2.6034,2.6034,0,0,1,117.2961,36.54Z"/><path class="cls-1" d="M126.193,43.5638a5.5583,5.5583,0,0,0,2.8307-.4895,3.0437,3.0437,0,0,0,.5336-1.9158c0-.2695-.0159-.4042-.0442-.4042a.0863.0863,0,0,0-.0636.0212,4.8627,4.8627,0,0,1-2.5533.5747,3.5357,3.5357,0,0,1-1.0337-.16c-.3463-.1065-.5212-.2452-.5212-.4152a7.2832,7.2832,0,0,0,3.1611-1.98,3.9541,3.9541,0,0,0,1.1609-2.6289,2.0313,2.0313,0,0,0-.8411-1.8628,3.38,3.38,0,0,0-1.8412-.5319,4.78,4.78,0,0,0-3.799,1.543,5.3472,5.3472,0,0,0-1.3518,3.64,4.8244,4.8244,0,0,0,1.1274,3.3524A4.1255,4.1255,0,0,0,126.193,43.5638Zm-1.2122-6.9819a1.8855,1.8855,0,0,1,1.532-.8936q.66,0,.6591.6171a2.4444,2.4444,0,0,1-1,1.8412,3.0312,3.0312,0,0,1-1.767.8835q-.0849,0-.0849-.2982A3.5094,3.5094,0,0,1,124.9808,36.5819Z"/><path class="cls-1" d="M85.0909,69.0222A110.2981,110.2981,0,0,0,84.3452,57.08a8.4242,8.4242,0,0,0,.4789-1.2559,4.86,4.86,0,0,0,.288-1.2559,6.289,6.289,0,0,0-1.873-.1064,5.2879,5.2879,0,0,0-2.0656.1917,14.7527,14.7527,0,0,0-1.4472,3.0971q-1.084,2.7353-1.2334,3.1929c-.1007.3053-.1714.4577-.2138.4577s-.0777-.0354-.106-.1065q-.4479-1.4047-1.3623-3.97a27.0961,27.0961,0,0,0-1.0214-2.6712,3.7258,3.7258,0,0,0-1.3093-.1065q-1.2033,0-2.2034.0641a3.1387,3.1387,0,0,0-1.0638.1488l-.0212.0641a3.7525,3.7525,0,0,0,.2651,1.043,3.804,3.804,0,0,0,.5636,1.1065L71.83,59.1663q-.6175,6.621-.6167,10.1965a1.9634,1.9634,0,0,0,.7651.1276,3.2193,3.2193,0,0,0,2.1505-.5111q-.1061-.5956-.1061-4.353a31.4814,31.4814,0,0,1,.3835-5.6941c.0141-.0989.0353-.1489.0636-.1489s.0636.0429.106.1277a35.205,35.205,0,0,1,1.4472,3.7359q1.2563,3.5019,1.32,3.7354c.0142.0428.1308.0853.3517.1281a4.639,4.639,0,0,0,.8517.0636c.3463,0,.5566-.0777.6272-.2341l.4471-1.4688q.4479-1.49,1.1167-3.3631a21.2479,21.2479,0,0,1,1.0973-2.6606l.1273-.1277a14.41,14.41,0,0,1,.2562,3.3419q.1059,2.6816.106,4.63t-.0636,2.82c0,.0566.1837.0853.553.0853a7.173,7.173,0,0,0,1.4154-.1811Q85.09,69.2349,85.0909,69.0222Z"/><path class="cls-1" d="M92.2419,59.55a30.47,30.47,0,0,0-.1272,4.193v.7241a1.8245,1.8245,0,0,1-.5.9471,1.5,1.5,0,0,1-1.1927.6706,1.0472,1.0472,0,0,1-.9895-.6176,1.8773,1.8773,0,0,1-.159-.5107c-.0354-.1983-.0566-.337-.0636-.4152-.0089-.0778-.02-.2553-.0336-.5319s-.0212-.7059-.0212-1.2877.0353-1.4122.1078-2.4906q.0212-.5532.0212-.5747a1.0033,1.0033,0,0,0-.5973-.1064,2.844,2.844,0,0,0-1.7864.447,10.2039,10.2039,0,0,0-.1926,2.7247q0,2.2988.0424,2.852.3207,3.47,2.5551,3.47a2.9413,2.9413,0,0,0,1.5214-.4683,3.9672,3.9672,0,0,0,1.2881-1.2559l.0212.0425.0212.447a4.9851,4.9851,0,0,0,.2562,1.2347q.2121.6381.3817.6383a3.3059,3.3059,0,0,0,1.4913-.4682q.8721-.4686.8729-.6812a4.0552,4.0552,0,0,1-.576-1.703,15.3058,15.3058,0,0,1-.0848-2.1071q0-1.66.1272-4.7042l.0424-1.0005a1.2627,1.2627,0,0,0-.6379-.0853,3.15,3.15,0,0,0-1.1167.2129A1.3476,1.3476,0,0,0,92.2419,59.55Z"/><path class="cls-1" d="M98.543,67.2976a4.6105,4.6105,0,0,1-2.5321.5747v.1493a2.6355,2.6355,0,0,0,.5319,1.6389q.1908.2558.2968.2553a7.378,7.378,0,0,0,2.1823-.3936,6.7384,6.7384,0,0,0,2.32-1.2983A2.6454,2.6454,0,0,0,102.418,66.17a2.2213,2.2213,0,0,0-.5548-1.3835,4.2451,4.2451,0,0,0-1.17-1.0006q-1.6619-.9582-1.661-1.5112,0-.7872,1.6822-1.32a4.9426,4.9426,0,0,1,1.2775-.2553,2.5548,2.5548,0,0,0-.3622-1.2029c-.228-.39-.4117-.5853-.5531-.5853a6.0777,6.0777,0,0,0-3.4492,1.0858,2.9888,2.9888,0,0,0-1.6168,2.3841,1.71,1.71,0,0,0,.5319,1.1813,4.5285,4.5285,0,0,0,1.17.9047,6.76,6.76,0,0,1,1.1716.7876,1.2,1.2,0,0,1,.5318.8513Q99.4159,66.7234,98.543,67.2976Z"/><path class="cls-1" d="M111.4209,61.71a2.0279,2.0279,0,0,0-.8411-1.8629,3.3757,3.3757,0,0,0-1.8412-.5319,4.785,4.785,0,0,0-3.7991,1.5431,5.3472,5.3472,0,0,0-1.3517,3.64,4.8255,4.8255,0,0,0,1.1291,3.3524,4.123,4.123,0,0,0,3.2354,1.2559,5.5583,5.5583,0,0,0,2.8307-.4895,3.0543,3.0543,0,0,0,.5319-1.9158q0-.4043-.0424-.4042a.0864.0864,0,0,0-.0637.0212,4.8739,4.8739,0,0,1-2.555.5747,3.5241,3.5241,0,0,1-1.032-.1595c-.3481-.1064-.5212-.2451-.5212-.4152a7.2817,7.2817,0,0,0,3.1611-1.98A3.96,3.96,0,0,0,111.4209,61.71Zm-3.49,1.9794a3.0354,3.0354,0,0,1-1.767.8835q-.0849,0-.0848-.2981a3.52,3.52,0,0,1,.659-2.15,1.89,1.89,0,0,1,1.532-.8937q.66,0,.6609.6171A2.45,2.45,0,0,1,107.9311,63.69Z"/><path class="cls-1" d="M112.8044,62.7215q0,2.2988.0424,2.852.3208,3.47,2.5551,3.47a2.941,2.941,0,0,0,1.5214-.4683,3.9672,3.9672,0,0,0,1.2881-1.2559l.0212.0425.0213.447a4.976,4.976,0,0,0,.2562,1.2347q.212.6381.3816.6383a3.3062,3.3062,0,0,0,1.4914-.4682q.8719-.4686.8729-.6812a4.0566,4.0566,0,0,1-.5761-1.703,15.3058,15.3058,0,0,1-.0848-2.1071q0-1.66.1272-4.7042l.0424-1.0005a1.2622,1.2622,0,0,0-.6378-.0853,3.151,3.151,0,0,0-1.1168.2129,1.3472,1.3472,0,0,0-.6714.4047,30.4588,30.4588,0,0,0-.1273,4.193v.7241a1.8232,1.8232,0,0,1-.5.9471,1.5,1.5,0,0,1-1.1927.6706,1.0474,1.0474,0,0,1-.99-.6176,1.8843,1.8843,0,0,1-.159-.5107c-.0353-.1983-.0565-.337-.0636-.4152-.0088-.0778-.0194-.2553-.0336-.5319s-.0212-.7059-.0212-1.2877.0354-1.4122.1078-2.4906q.0212-.5532.0212-.5747a1.0027,1.0027,0,0,0-.5972-.1064,2.8443,2.8443,0,0,0-1.7865.447A10.2085,10.2085,0,0,0,112.8044,62.7215Z"/><path class="cls-1" d="M134.026,60.2309a1.9681,1.9681,0,0,0-1.8942-1.1282,3.3693,3.3693,0,0,0-2.6823,1.703,2.2336,2.2336,0,0,0-3.2035-.8835,5.4583,5.4583,0,0,0-.8305.5535c-.1484.1352-.2509.2341-.3075.2982s-.1007.0954-.129.0954-.0424-.163-.0424-.4895.0283-.8013.0866-1.4259c0-.0566-.1643-.0853-.4912-.0853a2.88,2.88,0,0,0-1.0213.2023,2.496,2.496,0,0,0-.7881.436,4.58,4.58,0,0,0-.106,1.4688l.0636,5.0024a22.41,22.41,0,0,1-.1485,3.1289c0,.0429.0566.0641.17.0641a3.3935,3.3935,0,0,0,2.2352-.5111,11.8049,11.8049,0,0,0,.0866-2.1924L125,64.2115v-.447a2.1588,2.1588,0,0,1,.4683-1.043,1.37,1.37,0,0,1,1.15-.6811.7731.7731,0,0,1,.8411.6065,9.49,9.49,0,0,1,.159,2.1071,29.4173,29.4173,0,0,1-.1908,3.2248l.68.1064a6.2763,6.2763,0,0,0,1.1079-.1276c.4541-.0853.68-.1842.68-.2978l.0848-1.6817q0-2.469-.0636-3.1506a.7681.7681,0,0,1,.1378-.2765,1.7421,1.7421,0,0,1,.4577-.4364,1.2351,1.2351,0,0,1,.7244-.2236.9561.9561,0,0,1,.6715.2448,1.5473,1.5473,0,0,1,.3923.8088,6.7316,6.7316,0,0,1,.1608,1.1282q.0318.5646.0318,1.8629a31.9769,31.9769,0,0,1-.2351,3.4054l.6821.1065a6.139,6.139,0,0,0,1.1273-.1383c.4683-.0923.7033-.1882.7033-.2871l.0848-2.4906q0-1.9581-.1272-3.7889A7.2994,7.2994,0,0,0,134.026,60.2309Z"/><path class="cls-1" d="M37.8061,81.2913a.8688.8688,0,0,0-.7863.4895,2.2464,2.2464,0,0,0-.2809,1.1379,1.9878,1.9878,0,0,0,.26,1.0655.974.974,0,0,0,.2456.2664.4735.4735,0,0,0,.23.1223.7251.7251,0,0,0,.6627-.3167,1.31,1.31,0,0,1-.5337-1.0513.8376.8376,0,0,0,.9224-.8782Q38.5253,81.2918,37.8061,81.2913Z"/><path class="cls-1" d="M35.53,81.2913a.8682.8682,0,0,0-.7845.4895,2.2465,2.2465,0,0,0-.281,1.1379,2.0033,2.0033,0,0,0,.258,1.0655.974.974,0,0,0,.2456.2664.4807.4807,0,0,0,.23.1223.725.725,0,0,0,.6626-.3167,1.3082,1.3082,0,0,1-.5319-1.0513.8371.8371,0,0,0,.9206-.8782Q36.2494,81.2918,35.53,81.2913Z"/><path class="cls-1" d="M44.6161,89.7013a6.3225,6.3225,0,0,1-2.4773-.2306,4.8643,4.8643,0,0,1-.0707-1.2669c0-.7969.0036-1.2007.0142-1.21a3.7965,3.7965,0,0,1,1.0513-.152q.9065-.0636,1.2811-.0645c.0194.01.0724-.0627.159-.216a2.6162,2.6162,0,0,0,.3446-1.1808,5.5138,5.5138,0,0,0-1.1221-.0433q-1.1238,0-1.7.0146l-.0141-.6047a6.1913,6.1913,0,0,1,.0865-1.5842,3.0725,3.0725,0,0,1,1.0214-.151q.9355-.0649,1.463-.065a3.8339,3.8339,0,0,1,.59.0217c.0424.0141.1149-.05.2156-.1944a2.7108,2.7108,0,0,0,.288-.576,1.8605,1.8605,0,0,0,.1361-.6627,4.8432,4.8432,0,0,0-1.2087-.0574,32.6535,32.6535,0,0,0-5.0553.1582,2.8882,2.8882,0,0,0,.2527.7779,2.7194,2.7194,0,0,0,.41.7629,3.6423,3.6423,0,0,1,.0283.6772L40.2958,85.41q-.7633.0292-.7633.0433a1.9849,1.9849,0,0,0,.2385.8354,2.2859,2.2859,0,0,0,.4966.72q-.0293,1.4684-.0283,2.7866a4.8805,4.8805,0,0,0,.0848,1.39,11.3706,11.3706,0,0,0,2.5286.1149,9.98,9.98,0,0,0,2.5851-.144,2.4493,2.4493,0,0,0,.4894-.72,1.9383,1.9383,0,0,0,.23-.8208,1.3951,1.3951,0,0,0-.3163.0363A9.5355,9.5355,0,0,1,44.6161,89.7013Z"/><path class="cls-1" d="M50.3924,87.7285a18.5132,18.5132,0,0,1,2.1893-2.8515q0-.1584-.52-.4753a1.8981,1.8981,0,0,0-.6767-.3168,13.1668,13.1668,0,0,0-1.9578,2.3621,13.6624,13.6624,0,0,1-1.21-1.8867,1.7629,1.7629,0,0,0-.7051.4607,1.6419,1.6419,0,0,0-.4753.6768,11.5189,11.5189,0,0,0,1.3959,2.16A17.6414,17.6414,0,0,0,46.59,90.8534a1.8574,1.8574,0,0,0,.5831.6123,1.45,1.45,0,0,0,.8287.3525,27.026,27.026,0,0,1,1.44-2.5922,10.6912,10.6912,0,0,0,2.0744,2.3616q.2571,0,.7616-.54.5062-.5394.5054-.8137A10.7186,10.7186,0,0,1,50.3924,87.7285Z"/><path class="cls-1" d="M55.1881,84.733l.0141-.6768a.9528.9528,0,0,0-.3746-.0433,2.0384,2.0384,0,0,0-.7139.1586,1.72,1.72,0,0,0-.5831.3313q.0451.4605.0442,1.6416l-.0725,6.696q0,1.44.0584,1.9013c0,.0291.0954.0433.288.0433a3.4678,3.4678,0,0,0,.7474-.1078,1.37,1.37,0,0,0,.6485-.2951,22.7793,22.7793,0,0,1-.1149-2.88v-.2165a4.2012,4.2012,0,0,0,1.7282-.4461,4.9948,4.9948,0,0,0,1.0372-.6415,3.0094,3.0094,0,0,0,.7987-1.0363,3.2583,3.2583,0,0,0,.3233-1.4622Q59.0171,84.7334,55.1881,84.733Zm1.4966,4.45a2.472,2.472,0,0,1-1.5408.5045l-.0142-.72.0283-2.1177V86.36l.0142-.1873q2.1761,0,2.1751,1.5554A1.7161,1.7161,0,0,1,56.6847,89.1827Z"/><path class="cls-1" d="M61.7825,88.6217l.0283-3.5287q0-3.2111.0724-3.7443c0-.038-.1255-.0574-.3746-.0574a2.4177,2.4177,0,0,0-.857.1873c-.3216.1246-.4824.2355-.4824.3313,0,.019.0106.163.03.4321.0176.2685.0282.7823.0282,1.5408l-.0583,5.2126q0,1.2828.03,1.5991a3.3276,3.3276,0,0,0,.1714.7484c.0971.288.182.432.26.432a2.2284,2.2284,0,0,0,1.009-.3163c.3922-.2112.59-.3649.59-.4612a2.5552,2.5552,0,0,1-.4187-1.1521Q61.7816,89.6147,61.7825,88.6217Z"/><path class="cls-1" d="M68.6667,86.2738a3.2567,3.2567,0,0,0-.5548-.5111,1.0289,1.0289,0,0,0-.5549-.2518,2.7838,2.7838,0,0,0,.0442-.4753.4209.4209,0,0,0-.0583-.2739,2.3719,2.3719,0,0,0-.7492-.0862,3.4913,3.4913,0,0,0-2.7,1.0872,3.569,3.569,0,0,0-1,2.4915,3.2467,3.2467,0,0,0,.8057,2.2829,2.8713,2.8713,0,0,0,2.2247.8782,2.767,2.767,0,0,0,2.2476-1.001,3.6022,3.6022,0,0,0,.827-2.3687,3.2814,3.2814,0,0,0-.1573-1.0442A2.31,2.31,0,0,0,68.6667,86.2738Zm-1.5479,3.24a1.2519,1.2519,0,0,1-.9082.4471,1.4131,1.4131,0,0,1-.7563-.1732,1.6639,1.6639,0,0,1-.7192-1.555,2.0562,2.0562,0,0,1,.5107-1.4842,1.5173,1.5173,0,0,1,1.1026-.5323,1.4243,1.4243,0,0,0-.0442.36.6925.6925,0,0,0,.0283.2447h.1166a1.19,1.19,0,0,1,.6467.2156,1.2537,1.2537,0,0,1,.4471,1.153A1.8533,1.8533,0,0,1,67.1188,89.514Z"/><path class="cls-1" d="M72.8863,85.1937a2.4053,2.4053,0,0,0-.4541.3459c-.14.1343-.23.2279-.2739.281-.0424.0525-.0742.091-.0937.1148a.0786.0786,0,0,1-.0583.0362,1.7145,1.7145,0,0,1-.0283-.4969,7.7917,7.7917,0,0,1,.0442-.8857c0-.0477-.1131-.072-.3393-.072a2.4234,2.4234,0,0,0-.7262.1223,1.3683,1.3683,0,0,0-.5478.281,3.1062,3.1062,0,0,0-.0583.9073l.03,3.2694a15.9608,15.9608,0,0,1-.1025,2.275c0,.0283.0389.0433.1166.0433a2.3424,2.3424,0,0,0,1.5832-.3887,14.4162,14.4162,0,0,0,.0442-1.7714V87.9873a1.1023,1.1023,0,0,1,.23-.5177,1.8752,1.8752,0,0,1,1.6274-.85l.1873.0287.0583-.1153a2.46,2.46,0,0,0,.2015-1.1662,1.1148,1.1148,0,0,0-.1166-.5761A2.38,2.38,0,0,0,72.8863,85.1937Z"/><path class="cls-1" d="M80.0567,86.3674a1.3712,1.3712,0,0,0-.5689-1.26,2.2882,2.2882,0,0,0-1.2458-.36,3.2369,3.2369,0,0,0-2.5709,1.0438,3.6171,3.6171,0,0,0-.9136,2.4628,3.2661,3.2661,0,0,0,.7634,2.2679,2.79,2.79,0,0,0,2.1875.85,3.7575,3.7575,0,0,0,1.9154-.3313,2.06,2.06,0,0,0,.3605-1.2961c0-.182-.0088-.2739-.0283-.2739a.0623.0623,0,0,0-.0442.015,3.294,3.294,0,0,1-1.7281.3888,2.3607,2.3607,0,0,1-.6979-.1087c-.2351-.0715-.3534-.1652-.3534-.28a4.9251,4.9251,0,0,0,2.14-1.3393A2.6779,2.6779,0,0,0,80.0567,86.3674Zm-2.3624,1.34a2.0512,2.0512,0,0,1-1.1945.5972q-.0583,0-.0583-.2014a2.3762,2.3762,0,0,1,.447-1.4547,1.278,1.278,0,0,1,1.0372-.6048q.4453,0,.4453.4175A1.6555,1.6555,0,0,1,77.6943,87.7073Z"/><path class="cls-1" d="M85.8454,81.608c0-.0379-.1237-.0574-.3746-.0574a2.5259,2.5259,0,0,0-.8711.1873c-.3305.1246-.4965.235-.4965.3309a2.6423,2.6423,0,0,0,.0441.288,8.2641,8.2641,0,0,1,.0424,1.08q-.4452.0146-.7633.0287c-.0866.0773-.129.3-.129.67a1.3845,1.3845,0,0,0,.0707.6264l.8075-.0141q-.0425,1.728-.0442,3.6718,0,1.9442.0371,2.2617a2.3484,2.3484,0,0,0,.1732.6476,1.8487,1.8487,0,0,0,.258.4753c.0813.0955.1378.1441.1661.1441a2.1932,2.1932,0,0,0,1.0443-.3022c.3693-.2023.5548-.3561.5548-.4612a1.9141,1.9141,0,0,1-.59-1.2236q-.045-.4467-.0441-1.7794,0-1.3305.0282-3.4629h.6768c.0866,0,.1785-.1272.2739-.3816a2.43,2.43,0,0,0,.1449-.8716,5.1317,5.1317,0,0,0-1.08-.0429Q85.8172,81.94,85.8454,81.608Z"/><path class="cls-1" d="M92.643,86.2738a3.2365,3.2365,0,0,0-.553-.5111,1.0341,1.0341,0,0,0-.5549-.2518,2.9632,2.9632,0,0,0,.0424-.4753.4355.4355,0,0,0-.0565-.2739,2.3719,2.3719,0,0,0-.7492-.0862,3.4889,3.4889,0,0,0-2.7,1.0872A3.5709,3.5709,0,0,0,87.07,88.2542a3.2393,3.2393,0,0,0,.8076,2.2829,2.8711,2.8711,0,0,0,2.2246.8782,2.761,2.761,0,0,0,2.2458-1.001,3.5942,3.5942,0,0,0,.8288-2.3687,3.228,3.228,0,0,0-.1591-1.0442A2.2737,2.2737,0,0,0,92.643,86.2738Zm-1.5479,3.24a1.2453,1.2453,0,0,1-.9064.4471,1.4131,1.4131,0,0,1-.7563-.1732,1.6614,1.6614,0,0,1-.7209-1.555,2.0569,2.0569,0,0,1,.5124-1.4842,1.5108,1.5108,0,0,1,1.1008-.5323,1.5107,1.5107,0,0,0-.0424.36.6534.6534,0,0,0,.0283.2447h.1149a1.1911,1.1911,0,0,1,.6484.2156,1.2579,1.2579,0,0,1,.4471,1.153A1.8533,1.8533,0,0,1,91.0951,89.514Z"/><path class="cls-1" d="M99.6,85.64a1.48,1.48,0,0,0-.62-.0866h-.1573l.0142-.216a2.9566,2.9566,0,0,0-.0442-.5327q0-.0716-.5036-.072a4.2748,4.2748,0,0,0-3.1824,1.1233,3.8857,3.8857,0,0,0-1.11,2.8511,2.7775,2.7775,0,0,0,.576,1.714,1.8344,1.8344,0,0,0,1.5408.7633,2.0857,2.0857,0,0,0,1.8872-.9356l.0424-.0433c.0106,0,.0159.0194.0159.0574a6.4317,6.4317,0,0,1-.2032,1.7131,3.4815,3.4815,0,0,1-.4736,1.11,2.2474,2.2474,0,0,1-.6626.6043,2.1622,2.1622,0,0,1-.6556.281,2.9916,2.9916,0,0,1-.5548.05h-.2739a2.3845,2.3845,0,0,0,.1149.6909,2.7686,2.7686,0,0,0,.2456.5911c.0866.144.1431.2155.1731.2155a3.7418,3.7418,0,0,0,1.8289-.5035,3.64,3.64,0,0,0,.993-.7855,3.9557,3.9557,0,0,0,.7351-1.3535,6.0718,6.0718,0,0,0,.3022-1.994L99.6,87.47Zm-1.6274,2.7216a1.1584,1.1584,0,0,1-.3463.6485,1.0836,1.0836,0,0,1-.857.4029.9394.9394,0,0,1-.7775-.3313,1.1985,1.1985,0,0,1-.2668-.7775,2.1377,2.1377,0,0,1,.5407-1.49,1.8707,1.8707,0,0,1,1.4613-.5977l.3021.0433Q97.9731,86.7208,97.9723,88.3619Z"/><path class="cls-1" d="M105.9344,86.3674a1.3741,1.3741,0,0,0-.5672-1.26,2.2882,2.2882,0,0,0-1.2458-.36,3.2369,3.2369,0,0,0-2.5709,1.0438,3.6187,3.6187,0,0,0-.9153,2.4628,3.2661,3.2661,0,0,0,.7633,2.2679,2.7915,2.7915,0,0,0,2.1893.85,3.7621,3.7621,0,0,0,1.9154-.3313,2.06,2.06,0,0,0,.36-1.2961c0-.182-.0106-.2739-.03-.2739a.0551.0551,0,0,0-.0424.015,3.294,3.294,0,0,1-1.7281.3888,2.3607,2.3607,0,0,1-.6979-.1087c-.2368-.0715-.3534-.1652-.3534-.28a4.9186,4.9186,0,0,0,2.138-1.3393A2.6776,2.6776,0,0,0,105.9344,86.3674Zm-2.3607,1.34a2.0551,2.0551,0,0,1-1.1963.5972c-.0371,0-.0565-.0671-.0565-.2014a2.3867,2.3867,0,0,1,.4452-1.4547,1.28,1.28,0,0,1,1.0373-.6048c.2986,0,.447.1392.447.4175A1.6612,1.6612,0,0,1,103.5737,87.7073Z"/><path class="cls-1" d="M108.7,81.608c0-.0379-.1237-.0574-.3746-.0574a2.5259,2.5259,0,0,0-.8711.1873c-.33.1246-.4965.235-.4965.3309a2.6423,2.6423,0,0,0,.0441.288,8.2641,8.2641,0,0,1,.0424,1.08q-.4452.0146-.7633.0287c-.0866.0773-.129.3-.129.67a1.3845,1.3845,0,0,0,.0707.6264l.8075-.0141q-.0425,1.728-.0442,3.6718,0,1.9442.0371,2.2617a2.3484,2.3484,0,0,0,.1732.6476,1.8487,1.8487,0,0,0,.258.4753c.0813.0955.1378.1441.1661.1441a2.1932,2.1932,0,0,0,1.0443-.3022c.3693-.2023.5548-.3561.5548-.4612a1.9141,1.9141,0,0,1-.59-1.2236q-.045-.4467-.0441-1.7794,0-1.3305.0282-3.4629h.6768c.0866,0,.1785-.1272.2739-.3816a2.43,2.43,0,0,0,.1449-.8716,5.1317,5.1317,0,0,0-1.08-.0429Q108.6715,81.94,108.7,81.608Z"/><path class="cls-1" d="M115.3454,86.5835a5.4955,5.4955,0,0,0-.1944-.7055,1.6323,1.6323,0,0,0-.3163-.5831,1.6878,1.6878,0,0,0-.4682-.3459,1.5391,1.5391,0,0,0-.7051-.144,1.9721,1.9721,0,0,0-.9082.2522,3.3931,3.3931,0,0,0-.64.3958l-.288.288c-.03,0-.0441-.0238-.0441-.072V85.54q0-.5473.0441-2.3042.0425-1.7565.0566-1.8867c0-.038-.12-.0574-.36-.0574a1.9756,1.9756,0,0,0-.7474.1586,1.72,1.72,0,0,0-.5619.3309A6.2243,6.2243,0,0,0,110.14,83.25l.0424,4.9971a24.1774,24.1774,0,0,1-.1148,3.1249c0,.0283.0388.0433.1148.0433a2.4159,2.4159,0,0,0,1.585-.3887,4.22,4.22,0,0,0,.0725-1.1954q0-1.137-.03-2.1319l.1308-.273a1.5809,1.5809,0,0,1,.417-.5469.9492.9492,0,0,1,.6485-.2743.7122.7122,0,0,1,.705.6189,7.2039,7.2039,0,0,1,.1732,1.8147,22.2992,22.2992,0,0,1-.1449,2.4915l.4753.0724a4.025,4.025,0,0,0,.7351-.0866c.2968-.0574.4612-.1245.4894-.2014l.0583-1.9154q0-1.1662-.0441-1.93A7.49,7.49,0,0,0,115.3454,86.5835Z"/><path class="cls-1" d="M121.8037,86.3674a1.3739,1.3739,0,0,0-.5672-1.26,2.2878,2.2878,0,0,0-1.2457-.36,3.237,3.237,0,0,0-2.571,1.0438,3.6191,3.6191,0,0,0-.9153,2.4628,3.2661,3.2661,0,0,0,.7634,2.2679,2.7913,2.7913,0,0,0,2.1893.85,3.7621,3.7621,0,0,0,1.9154-.3313,2.06,2.06,0,0,0,.36-1.2961c0-.182-.0106-.2739-.03-.2739a.0551.0551,0,0,0-.0424.015,3.294,3.294,0,0,1-1.7281.3888,2.3613,2.3613,0,0,1-.698-.1087c-.2367-.0715-.3534-.1652-.3534-.28a4.9183,4.9183,0,0,0,2.1381-1.3393A2.6779,2.6779,0,0,0,121.8037,86.3674Zm-2.3607,1.34a2.0546,2.0546,0,0,1-1.1962.5972c-.0371,0-.0566-.0671-.0566-.2014a2.3868,2.3868,0,0,1,.4453-1.4547,1.28,1.28,0,0,1,1.0372-.6048c.2987,0,.4471.1392.4471.4175A1.6611,1.6611,0,0,1,119.443,87.7073Z"/><path class="cls-1" d="M125.419,85.1937a2.4675,2.4675,0,0,0-.4541.3459c-.1378.1343-.23.2279-.2721.281-.0442.0525-.076.091-.0937.1148a.0784.0784,0,0,1-.0583.0362,1.64,1.64,0,0,1-.0283-.4969,8.24,8.24,0,0,1,.0425-.8857c0-.0477-.1131-.072-.3375-.072a2.4427,2.4427,0,0,0-.728.1223,1.3669,1.3669,0,0,0-.5478.281,3.222,3.222,0,0,0-.0566.9073l.0283,3.2694a16.0545,16.0545,0,0,1-.1007,2.275c0,.0283.0389.0433.1149.0433a2.3447,2.3447,0,0,0,1.5849-.3887,14.6951,14.6951,0,0,0,.0425-1.7714V87.9873a1.11,1.11,0,0,1,.2314-.5177,1.87,1.87,0,0,1,1.6257-.85l.1873.0287.0583-.1153a2.46,2.46,0,0,0,.2014-1.1662,1.1357,1.1357,0,0,0-.1148-.5761A2.39,2.39,0,0,0,125.419,85.1937Z"/><path class="cls-1" d="M130.5168,81.2913a.8626.8626,0,0,0-.9082.8354q0,.8786.7933.8782a1.5407,1.5407,0,0,1-.7209,1.0513.575.575,0,0,0,.2226.216.6358.6358,0,0,0,.3322.1007.6441.6441,0,0,0,.3958-.216,2.6575,2.6575,0,0,0,.6909-1.7135,1.4928,1.4928,0,0,0-.2085-.8354A.6729.6729,0,0,0,130.5168,81.2913Z"/><path class="cls-1" d="M128.1985,81.2913a.8626.8626,0,0,0-.9082.8354c0,.5857.265.8782.7916.8782a1.5379,1.5379,0,0,1-.7192,1.0513.575.575,0,0,0,.2226.216.6358.6358,0,0,0,.3322.1007.6441.6441,0,0,0,.3958-.216,2.6575,2.6575,0,0,0,.6909-1.7135,1.4928,1.4928,0,0,0-.2085-.8354A.6748.6748,0,0,0,128.1985,81.2913Z"/><path class="cls-2" d="M59.0284,38.5775A25.4084,25.4084,0,1,0,24.76,62.3978a.8669.8669,0,0,0,1.1253-.5421l4.6265-14.084a.8687.8687,0,0,0-.4784-1.0653,8.8829,8.8829,0,1,1,7.1708.0012.8674.8674,0,0,0-.4756,1.064L41.355,61.8557a.8664.8664,0,0,0,1.1247.5423A25.4178,25.4178,0,0,0,59.0284,38.5775Z"/><path class="cls-3" d="M42.8852,63.5323a3.8292,3.8292,0,0,1-.781.113c-2.2178,5.9516-5.2019,9.5975-8.4842,9.5975-6.8468,0-12.3972-15.8635-12.3972-35.432S26.7732,2.3789,33.62,2.3789c3.561,0,6.7712,4.2911,9.0324,11.1625.1993.0793,1.1569.4358,1.2385.4815C41.4663,5.4908,37.7656.0168,33.62.0168c-7.3032,0-13.2237,16.9209-13.2237,37.794S26.3168,75.6049,33.62,75.6049c3.8565,0,7.3173-4.7469,9.7345-12.2737C43.2441,63.37,42.9858,63.4988,42.8852,63.5323Z"/><circle class="cls-4" cx="26.2089" cy="8.1401" r="2.447"/><path class="cls-3" d="M7.4891,33.5192c-4.0631-4.8816-5.644-9.2828-4.0133-12.1313,3.4018-5.9419,19.9264-2.8773,36.9088,6.8452s27.9917,22.4209,24.59,28.3628c-1.7692,3.09-7.0918,3.7623-14.1785,2.3106a1.8188,1.8188,0,0,0-.1676.1341,3.716,3.716,0,0,0-.3364.2753c-.0919.0891-.2413.173-.334.2611a.7383.7383,0,0,1-.1676.134C58.4,61.846,64.9648,61.3672,67.0245,57.77c3.6285-6.338-8.1147-19.8831-26.2292-30.2537S5.0544,13.8762,1.4259,20.2143c-1.9161,3.3468.5216,8.7032,5.8526,14.5406"/><circle class="cls-4" cx="63.6568" cy="47.3018" r="2.447"/><path class="cls-3" d="M51.5586,18.7866c6.2608-1.0687,10.8615-.23,12.5088,2.6086C67.5036,27.3172,56.5683,40.08,39.6427,49.9S6.2105,62.8819,2.7743,56.96c-1.7872-3.08-.0357-7.5865,4.7728-12.9909-.0076-.1206-.1919-1.1591-.1933-1.2526C1.1908,49.0954-1.3494,54.56.7312,58.1453c3.6653,6.3169,21.2723,2.9456,39.3263-7.53S69.7758,26.5266,66.1105,20.21c-1.9355-3.3356-7.7922-3.9115-15.5156-2.2247"/><circle class="cls-4" cx="11.4769" cy="60.4786" r="2.447"/></svg>